<svg xmlns="http://www.w3.org/2000/svg" xml:space="preserve" width="1418.3458" height="300" viewBox="0 0 1418.3458 299.99999"><path d="M0 0h61.263v32.076H-53.694L0 7.018Z" style="fill:#00f;fill-opacity:1;fill-rule:nonzero;stroke:none" transform="matrix(4.56692 0 0 -4.56692 253.51 146.489)"/><path d="m0 0-49.543-24.771H64.484L43.252 0Z" style="fill:#c3c6c8;fill-opacity:1;fill-rule:nonzero;stroke:none" transform="matrix(4.56692 0 0 -4.56692 234.149 186.873)"/><path d="m0 0 21.123-24.642V6.24H0Z" style="fill:#828c91;fill-opacity:1;fill-rule:nonzero;stroke:none" transform="matrix(4.56692 0 0 -4.56692 436.824 182.043)"/><path d="M0 0h-50.315v-31.206L0-6.048Z" style="fill:#5c6670;fill-opacity:1;fill-rule:nonzero;stroke:none" transform="matrix(4.56692 0 0 -4.56692 229.787 153.544)"/><path d="M0 0v6.034l-53.965 25.184V0Z" style="fill:#000;fill-opacity:1;fill-rule:nonzero;stroke:none" transform="matrix(4.56692 0 0 -4.56692 246.454 146.489)"/><path d="m0 0-.314-.374c-1.645-1.942-4.69-4.258-9.856-4.258-5.369 0-11.076 3.418-11.076 9.753 0 6.62 5.195 10.193 10.084 10.193 5.223 0 8.516-2.748 9.924-3.921l.486-.403 3.617 3.081-.342.331c-4.888 4.75-10.16 5.747-13.722 5.747-8.346 0-14.883-6.601-14.883-15.028 0-4.085 1.635-7.838 4.602-10.569 2.779-2.555 6.552-4.02 10.355-4.02C-2.92-9.468.459-6.549 2.98-3.813l.272.293zm-48.119-2.628h2.045v15.939h-2.045zm-71.397 0h2.078v15.939h-2.078zm47.821 2.254c-1.645-1.942-4.688-4.258-9.856-4.258-5.369 0-11.074 3.418-11.074 9.753 0 6.62 5.193 10.193 10.082 10.193 5.223 0 8.518-2.748 9.924-3.921l.486-.403 3.617 3.081-.341.331c-4.887 4.75-10.159 5.747-13.723 5.747-8.346 0-14.883-6.601-14.883-15.028 0-4.085 1.635-7.838 4.604-10.569 2.777-2.555 6.55-4.02 10.353-4.02 8.205 0 11.584 2.919 14.108 5.655l.269.293-3.25 3.52zm-86.129 5.412 3.668 8.114 3.67-8.114zm6.23 14.524h-4.972L-169.424-8.88h5.291l4.08 9.082h11.754l3.934-9.082h5.435l-12.55 28.185z" style="fill:#000;fill-opacity:1;fill-rule:nonzero;stroke:none" transform="matrix(4.56692 0 0 -4.56692 1403.494 92.7)"/><path d="m0 0 .051.01-.225 1.742-.01.059-.056-.012c-1.653-.329-3.172-.448-6.006-.465v3.301h4.769v1.801h-7.097v-6.92h1.375C-3.516-.484-1.834-.372 0 0m-1.904-5.719c-1.371 0-3.006.22-3.006 1.265 0 .84 1.012 1.266 3.006 1.266 2.006 0 3.021-.426 3.021-1.266 0-1.045-1.642-1.265-3.021-1.265m0 4.331c-3.28 0-5.317-1.175-5.317-3.066 0-1.891 2.037-3.066 5.317-3.066 3.289 0 5.332 1.175 5.332 3.066 0 1.891-2.043 3.066-5.332 3.066m5.197 5.313V7.45H.932v-8.691h2.361v3.332h2.029v1.834ZM-20.539 1.77h2.435v-5.265h2.344V7.434h-2.344V3.603h-2.435zm-3.529-.489c.713-1.376 1.925-2.362 3.517-2.858l.041-.012 1.145 1.755-.071.022c-3.226 1.037-3.478 3.561-3.478 4.309v.138h3.027v1.801h-8.482V4.635h3.06v-.154c0-2.529-1.875-4.009-3.63-4.55l-.071-.022 1.156-1.753.024-.036.041.013c1.682.535 2.967 1.621 3.721 3.148m.275-3.763h-2.344v-4.764h10.733v1.802h-8.389zm-12.391 9.916h-2.341V-7.503h2.341v7.035h1.946v1.866h-1.946zM-45.535.698c0 .711.611 1.135 1.635 1.135 1.025 0 1.636-.424 1.636-1.135 0-.711-.611-1.136-1.636-1.136-1.024 0-1.635.425-1.635 1.136m6.262-3.487c-1.118-.16-2.319-.241-3.456-.302v1.071c1.661.328 2.69 1.366 2.69 2.718 0 1.681-1.588 2.856-3.861 2.856-2.274 0-3.862-1.175-3.862-2.856 0-1.352 1.03-2.39 2.69-2.718v-1.155c-1.348-.032-2.606-.032-3.715-.032h-.067l.282-1.787.008-.046h.046c2.594 0 6.145 0 9.432.612l.051.009-.182 1.638zm-.004 8.597h-3.452V7.37h-2.343V5.808h-3.485V4.023h9.28zm-19.078-2.85h-6.064v2.079h6.064zm2.308 3.849h-10.682V1.174h10.682zm-8.439-9.643h-2.344v-4.41h11.019v1.802h-8.675zm-3.985 1.16h6.141v-2.528h2.342v2.528h5.734V.11h-14.217ZM-84-2.257c-1.184 0-1.891 1.243-1.891 3.325 0 2.073.707 3.31 1.891 3.31 1.164 0 1.889-1.269 1.889-3.31 0-2.082-.705-3.325-1.889-3.325m0 8.66c-2.482 0-4.148-2.144-4.148-5.335 0-3.21 1.666-5.367 4.148-5.367 2.48 0 4.148 2.157 4.148 5.367 0 3.191-1.668 5.335-4.148 5.335m8.072 1.031h-2.343V-7.503h2.343v7.486h2.266v1.865h-2.266zm-25.935-3.355v2.213h-2.344V4.079c0-3.824-2.055-6.023-3.975-6.807l-.066-.027 1.406-1.848.041.018c1.742.785 3.055 2.271 3.801 4.304.75-1.875 2.014-3.239 3.662-3.949l.041-.018 1.338 1.816-.066.026c-2.368.968-3.838 3.453-3.838 6.485m4.521-11.615h2.344V7.45h-2.344zm-18.146 14.97h-2.344V-7.503h2.344v7.486h2.267v1.865h-2.267zm-8.073-9.691c-1.183 0-1.888 1.243-1.888 3.325 0 2.073.705 3.31 1.888 3.31 1.166 0 1.891-1.269 1.891-3.31 0-2.082-.707-3.325-1.891-3.325m0 8.66c-2.48 0-4.148-2.144-4.148-5.335 0-3.21 1.668-5.367 4.148-5.367 2.481 0 4.149 2.157 4.149 5.367 0 3.191-1.668 5.335-4.149 5.335m-14.236-6.669-.269 1.801-.055-.009c-1.981-.314-3.764-.385-6.348-.401v1.111h4.957v4.522h-7.283V4.957h4.973V3.925h-4.955V-.693h1.425c3.307 0 5.274.063 7.5.418zm.947-5.259h-5.826v1.08h5.826zm0 2.817h-5.826v1.256h-2.326v-5.874h10.479v5.874h-2.327zm-.033 1.757h2.359v8.384h-2.359zm-17.91 6.51v1.248h-10.818V4.988h8.507a15.454 15.454 0 0 0-.328-3.301h-9.922V-.114h5.92v-1.982h-4.498v-1.785h8.811v-3.622h2.361v5.407h-4.33v1.982h5.953v1.801h-1.949c.293 1.552.293 2.784.293 3.872" style="fill:#000;fill-opacity:1;fill-rule:nonzero;stroke:none" transform="matrix(4.56692 0 0 -4.56692 1394.04 201.76)"/><path d="M0 0h-2.592v.964H0C.482.964.883.928.883.488.883.156.604 0 0 0m1.014-1.397c.439.173 1.334.624 1.334 1.885 0 1.251-.834 1.939-2.348 1.939h-4.057v-6.414h1.465v2.524h1.815L.789-3.987h1.824zm-12.666-.007h2.25V.059h-2.25v.905h4.257v1.463h-5.72v-6.414h5.865v1.463h-4.402zM-22.211.964h2.283v-4.951h1.465V.964h2.283v1.463h-6.031zm-4.728-2.551-3.225 3.975-.033.039h-1.407v-6.414h1.463V.028l3.225-3.975.033-.04h1.406v6.414h-1.462zm-12.582.183h2.248V.059h-2.248v.905h4.255v1.463h-5.72v-6.414h5.865v1.463h-4.4zm-5.69.133c-.537-.636-1.535-1.396-3.228-1.396-2.36 0-3.633 1.65-3.633 3.202 0 2.174 1.707 3.348 3.31 3.348 1.711 0 2.789-.901 3.25-1.285l.135-.114 1.133.964-.088.085c-1.272 1.235-2.768 1.86-4.441 1.86-2.698 0-4.811-2.134-4.811-4.858 0-2.317 1.809-4.714 4.834-4.714 2.658 0 3.75.945 4.566 1.83l.069.075-1.014 1.099zm-20.855-.133h2.248V.059h-2.248v.905h4.257v1.463h-5.722v-6.414h5.865v1.463h-4.4zM-73.143 0h-2.593v.964h2.593c.483 0 .883-.036.883-.476 0-.332-.281-.488-.883-.488m2.346.488c0 1.251-.832 1.939-2.346 1.939h-4.056v-6.414h1.463v2.524h1.814l1.567-2.524h1.826l-1.602 2.59c.442.173 1.334.624 1.334 1.885m-11.861-1.937c0-.565 0-1.266-1.635-1.266-1.512 0-1.637.598-1.637 1.266v3.876h-1.465v-3.876c0-1.019.403-2.73 3.088-2.73 2.573 0 3.114 1.485 3.114 2.73v3.876h-1.465zM-96.682.964h2.286v-4.951h1.462V.964h2.286v1.463h-6.034zm-5.812 1.463h-1.465v-6.414h5.027v1.463h-3.562zm-6.709-3.876c0-.565 0-1.266-1.635-1.266-1.512 0-1.637.598-1.637 1.266v3.876h-1.463v-3.876c0-1.019.401-2.73 3.088-2.73 2.571 0 3.112 1.485 3.112 2.73v3.876h-1.465zm-9.151.178c-.539-.636-1.537-1.396-3.228-1.396-2.359 0-3.633 1.65-3.633 3.202 0 2.174 1.705 3.348 3.311 3.348 1.711 0 2.787-.901 3.248-1.285l.136-.114 1.131.964-.086.084c-1.582 1.539-3.289 1.861-4.443 1.861-2.697 0-4.809-2.134-4.809-4.858 0-2.317 1.807-4.714 4.834-4.714 2.657 0 3.748.945 4.565 1.83l.07.075-1.015 1.099zm-20.718.051 1.019 2.079 1.02-2.079zm.113 3.647-3.109-6.414h1.656l.623 1.304h3.484l.623-1.304h1.657l-3.145 6.414zm-7.201-6.414h1.465v6.415h-1.465zm-5.645 4.01-1.619.061c-.367 0-.988.103-.988.488 0 .54 1.041.583 1.359.583 1.155 0 2.02-.376 2.569-.657l.099-.051.662 1.297-.211.11a5.808 5.808 0 0 1-2.927.765c-.707 0-3.016-.145-3.016-2.012 0-.961.732-1.949 2.367-1.986l1.854-.06c.248-.008.826-.076.826-.537 0-.718-1.404-.739-1.565-.739-1.156 0-2.15.295-3.132.927l-.102.066-.674-1.301.074-.056c.956-.73 2.245-1.1 3.834-1.1 1.897 0 3.028.802 3.028 2.144 0 1.289-.865 2.02-2.438 2.058m-12.252.456 1.241 2.743 1.24-2.743zm2.053 4.723h-1.576l-4.084-9.034-.07-.155h1.652l1.328 2.954h3.863l1.25-2.888.03-.066h1.701l-4.065 9.124z" style="fill:#000;fill-opacity:1;fill-rule:nonzero;stroke:none" transform="matrix(4.56692 0 0 -4.56692 1401.095 280.24)"/></svg>