<svg xmlns="http://www.w3.org/2000/svg" viewBox="0 0 55 80"><defs><style>.cls-1{fill:#c8c8c8;}</style></defs><title>Asset 10</title><g id="Layer_2" data-name="Layer 2"><g id="Layer_1-2" data-name="Layer 1"><path class="cls-1" d="M55,47.5H50a21.12,21.12,0,0,1-3,7A23.06,23.06,0,0,1,41.91,60a24,24,0,0,1-6.72,3.67,23,23,0,0,1-15.39,0A24,24,0,0,1,13.09,60,23.06,23.06,0,0,1,8,54.45a21.12,21.12,0,0,1-3-7H0a26.55,26.55,0,0,0,3.13,8.44A28,28,0,0,0,16.21,67.62,29,29,0,0,0,25,69.92V75H22.5a2.5,2.5,0,0,0,0,5h10a2.5,2.5,0,0,0,0-5H30V69.92a29,29,0,0,0,8.79-2.3A28,28,0,0,0,51.88,55.94,26.55,26.55,0,0,0,55,47.5Zm-40-30a12,12,0,0,1,3.67-8.83A12,12,0,0,1,27.5,5a12,12,0,0,1,8.83,3.67A12,12,0,0,1,40,17.5v25a12,12,0,0,1-3.67,8.83A12,12,0,0,1,27.5,55a12,12,0,0,1-8.83-3.67A12,12,0,0,1,15,42.5ZM27.5,60a17.13,17.13,0,0,0,6.8-1.37,17.43,17.43,0,0,0,9.34-9.34A17.13,17.13,0,0,0,45,42.5v-25a17.13,17.13,0,0,0-1.37-6.8A17.43,17.43,0,0,0,34.3,1.37a17.58,17.58,0,0,0-13.59,0,17.43,17.43,0,0,0-9.34,9.34A17.13,17.13,0,0,0,10,17.5v25a17.13,17.13,0,0,0,1.37,6.8,17.43,17.43,0,0,0,9.34,9.34A17.13,17.13,0,0,0,27.5,60Z"/></g></g></svg>