<svg xmlns="http://www.w3.org/2000/svg" viewBox="0 0 80 75"><defs><style>.cls-1{fill:#c8c8c8;}</style></defs><title>Asset 8</title><g id="Layer_2" data-name="Layer 2"><g id="Layer_1-2" data-name="Layer 1"><path class="cls-1" d="M75,32.5H5V20a4.81,4.81,0,0,1,1.48-3.52A4.81,4.81,0,0,1,10,15H70a5.07,5.07,0,0,1,5,5ZM35,40a4.43,4.43,0,0,1,.2-1.33,5.9,5.9,0,0,1,.51-1.17H44.3a5.9,5.9,0,0,1,.51,1.17A4.43,4.43,0,0,1,45,40a5,5,0,0,1-10,0ZM75,65a5.07,5.07,0,0,1-5,5H10a4.81,4.81,0,0,1-3.52-1.48A4.81,4.81,0,0,1,5,65V37.5H30.39q-.16.63-.27,1.25A6.77,6.77,0,0,0,30,40,10,10,0,0,0,40,50,10,10,0,0,0,50,40a6.77,6.77,0,0,0-.12-1.25q-.12-.63-.27-1.25H75ZM30,7.5a2.4,2.4,0,0,1,.74-1.76A2.4,2.4,0,0,1,32.5,5h15a2.4,2.4,0,0,1,1.76.74A2.4,2.4,0,0,1,50,7.5V10H30ZM70,10H55V5a4.81,4.81,0,0,0-1.48-3.52A4.81,4.81,0,0,0,50,0H30a4.81,4.81,0,0,0-3.52,1.48A4.81,4.81,0,0,0,25,5v5H10a9.63,9.63,0,0,0-7.07,2.93A9.63,9.63,0,0,0,0,20V65a9.63,9.63,0,0,0,2.93,7.07A9.63,9.63,0,0,0,10,75H70A10,10,0,0,0,80,65V20a9.63,9.63,0,0,0-2.93-7.07A9.63,9.63,0,0,0,70,10Z"/></g></g></svg>