<svg xmlns="http://www.w3.org/2000/svg" viewBox="0 0 80 80"><defs><style>.cls-1{fill:#c8c8c8;}</style></defs><title>Asset 12</title><g id="Layer_2" data-name="Layer 2"><g id="Layer_1-2" data-name="Layer 1"><path class="cls-1" d="M75,70a4.51,4.51,0,0,1-1.72,3.52A5.62,5.62,0,0,1,69.53,75H9.92a4.74,4.74,0,0,1-3.48-1.45A4.74,4.74,0,0,1,5,70.08V10.39A5.48,5.48,0,0,1,6.48,6.68,4.55,4.55,0,0,1,10,5H70a4.81,4.81,0,0,1,3.52,1.48A4.81,4.81,0,0,1,75,10ZM70,0H10A9.29,9.29,0,0,0,2.93,3.16,10.34,10.34,0,0,0,0,10.39V70.08a9.61,9.61,0,0,0,2.89,7,9.51,9.51,0,0,0,7,2.93H69.53a10.43,10.43,0,0,0,7.3-2.93A9.29,9.29,0,0,0,80,70V10a9.63,9.63,0,0,0-2.93-7.07A9.63,9.63,0,0,0,70,0ZM60,20H20a2.5,2.5,0,0,0,0,5H60a2.5,2.5,0,0,0,0-5Zm0,30H20a2.5,2.5,0,0,0,0,5H60a2.5,2.5,0,0,0,0-5Zm0-15H20a2.5,2.5,0,0,0,0,5H60a2.5,2.5,0,0,0,0-5Z"/></g></g></svg>