<svg xmlns="http://www.w3.org/2000/svg" viewBox="0 0 80 80"><defs><style>.cls-1{fill:#c8c8c8;}</style></defs><title>Asset 9</title><g id="Layer_2" data-name="Layer 2"><g id="Layer_1-2" data-name="Layer 1"><path class="cls-1" d="M75,55a7.17,7.17,0,0,1-2.38,5.12A7.17,7.17,0,0,1,67.5,62.5h-20L40,72.5l-7.5-10h-20a7.17,7.17,0,0,1-5.12-2.38A7.17,7.17,0,0,1,5,55V12.5A7.17,7.17,0,0,1,7.38,7.38,7.17,7.17,0,0,1,12.5,5h55a7.17,7.17,0,0,1,5.12,2.38A7.17,7.17,0,0,1,75,12.5ZM66.64,0H13.36A12.94,12.94,0,0,0,3.91,3.87,12.66,12.66,0,0,0,0,13.2V55.47a11.46,11.46,0,0,0,3.48,8.75,12.61,12.61,0,0,0,9,3.28H29.06L40,80,50.94,67.5H67.5a12.61,12.61,0,0,0,9-3.28A11.46,11.46,0,0,0,80,55.47V13.2a12.66,12.66,0,0,0-3.91-9.34A12.94,12.94,0,0,0,66.64,0Z"/></g></g></svg>