<svg xmlns="http://www.w3.org/2000/svg" viewBox="0 0 80 80"><defs><style>.cls-1{fill:#c8c8c8;}</style></defs><title>Asset 6</title><g id="Layer_2" data-name="Layer 2"><g id="Layer_1-2" data-name="Layer 1"><path class="cls-1" d="M60,30a5,5,0,0,0-3.52,8.52,5,5,0,1,0,7-7A4.81,4.81,0,0,0,60,30ZM40,65a38.88,38.88,0,0,1-4.3-.23,36.15,36.15,0,0,1-4.14-.7l-11.8,7.11.16-11.64a35.06,35.06,0,0,1-6.13-4.69,30,30,0,0,1-4.73-5.78,27.07,27.07,0,0,1-3-6.68A26.33,26.33,0,0,1,7.73,23.32a30.72,30.72,0,0,1,7.5-9.53A35.88,35.88,0,0,1,26.37,7.34,39.15,39.15,0,0,1,40,5,39.15,39.15,0,0,1,53.63,7.34a35.88,35.88,0,0,1,11.13,6.45,30.72,30.72,0,0,1,7.5,9.53,26.31,26.31,0,0,1,0,23.36,30.72,30.72,0,0,1-7.5,9.53,35.88,35.88,0,0,1-11.13,6.45A39.15,39.15,0,0,1,40,65ZM40,0A44.09,44.09,0,0,0,24.41,2.73a40.74,40.74,0,0,0-12.73,7.5A35.51,35.51,0,0,0,3.13,21.37,31.16,31.16,0,0,0,1.05,43a33.06,33.06,0,0,0,3,7.38,33.84,33.84,0,0,0,4.73,6.52A36,36,0,0,0,15,62.27V80L32.5,69.38q1.88.31,3.71.47T40,70a44.09,44.09,0,0,0,15.59-2.73,40.74,40.74,0,0,0,12.73-7.5,35.51,35.51,0,0,0,8.55-11.13A30.53,30.53,0,0,0,80,35a30.53,30.53,0,0,0-3.12-13.63,35.51,35.51,0,0,0-8.55-11.13,40.74,40.74,0,0,0-12.73-7.5A44.09,44.09,0,0,0,40,0ZM20,30a5,5,0,0,0-3.52,8.52,4.91,4.91,0,0,0,7,0A5,5,0,0,0,20,30Zm20,0a5,5,0,0,0-3.52,8.52,5,5,0,1,0,7-7A4.81,4.81,0,0,0,40,30Z"/></g></g></svg>