<svg xmlns="http://www.w3.org/2000/svg" viewBox="0 0 80 70"><defs><style>.cls-1{fill:#c8c8c8;}</style></defs><title>Asset 14</title><g id="Layer_2" data-name="Layer 2"><g id="Layer_1-2" data-name="Layer 1"><path class="cls-1" d="M75,65,60,52.5V45L75,35ZM47.5,30a12,12,0,0,1-8.83-3.67A12,12,0,0,1,35,17.5a12,12,0,0,1,3.67-8.83,12.45,12.45,0,0,1,17.66,0A12,12,0,0,1,60,17.5a12,12,0,0,1-3.67,8.83A12,12,0,0,1,47.5,30ZM55,60a5.07,5.07,0,0,1-5,5H10a4.81,4.81,0,0,1-3.52-1.48A4.81,4.81,0,0,1,5,60V40a4.81,4.81,0,0,1,1.48-3.52A4.81,4.81,0,0,1,10,35H50a5.07,5.07,0,0,1,5,5ZM5,20a9.63,9.63,0,0,1,2.93-7.07A9.63,9.63,0,0,1,15,10a9.63,9.63,0,0,1,7.07,2.93A9.63,9.63,0,0,1,25,20a9.63,9.63,0,0,1-2.93,7.07A9.63,9.63,0,0,1,15,30a9.63,9.63,0,0,1-7.07-2.93A9.63,9.63,0,0,1,5,20ZM75,30,60,40a9.3,9.3,0,0,0-1-4.22,11.22,11.22,0,0,0-2.54-3.36,17.42,17.42,0,0,0,6.17-6.21A16.74,16.74,0,0,0,65,17.5a17.13,17.13,0,0,0-1.37-6.8A17.43,17.43,0,0,0,54.3,1.37a17.58,17.58,0,0,0-13.59,0,17.43,17.43,0,0,0-9.34,9.34A17.13,17.13,0,0,0,30,17.5a16.91,16.91,0,0,0,1.41,6.88A17.62,17.62,0,0,0,35.31,30H26.09a16.26,16.26,0,0,0,2.85-4.57A14,14,0,0,0,30,20,14.47,14.47,0,0,0,25.63,9.38,14.47,14.47,0,0,0,15,5,14.47,14.47,0,0,0,4.38,9.38,14.47,14.47,0,0,0,0,20a14.35,14.35,0,0,0,1.41,6.29,14.68,14.68,0,0,0,3.83,5,10.55,10.55,0,0,0-3.79,3.63A9.44,9.44,0,0,0,0,40V60a9.63,9.63,0,0,0,2.93,7.07A9.63,9.63,0,0,0,10,70H50A10,10,0,0,0,60,60V57.5L75,70a5.07,5.07,0,0,0,5-5V35a5.07,5.07,0,0,0-5-5Z"/></g></g></svg>