<svg xmlns="http://www.w3.org/2000/svg" viewBox="0 0 77.5 80"><defs><style>.cls-1{fill:#c8c8c8;}</style></defs><title>Asset 7</title><g id="Layer_2" data-name="Layer 2"><g id="Layer_1-2" data-name="Layer 1"><path class="cls-1" d="M67.34,22.81q.08.55.12,1.09t0,1.09q0,1.17-.12,2.34t-.27,2.34a22.54,22.54,0,0,1,4,6.52,20.77,20.77,0,0,1,.51,13.55,22.69,22.69,0,0,1-2.54,5.47,23.28,23.28,0,0,1-3.95,4.69A29.75,29.75,0,0,1,60,63.67V72.5l-8.52-5.7q-1.56.31-3.2.51a27.73,27.73,0,0,1-3.28.2,20,20,0,0,1-8-1.37,40.42,40.42,0,0,1-6.64-3.79q-1,.08-2.07.12t-2.07,0q-.78,0-1.48,0t-1.48-.12a38.75,38.75,0,0,0,9.49,7A26.59,26.59,0,0,0,45,71.88q1.56,0,3-.12t3-.35L65,80V65.86a33.44,33.44,0,0,0,5.16-4.41,26,26,0,0,0,3.95-5.35A28.54,28.54,0,0,0,76.6,50a24.05,24.05,0,0,0,.9-6.6A24.57,24.57,0,0,0,74.77,32,29.44,29.44,0,0,0,67.34,22.81ZM5,28.75a20.89,20.89,0,0,1,2.11-9.26A23.63,23.63,0,0,1,12.89,12,27.9,27.9,0,0,1,21.6,6.88,31,31,0,0,1,32.5,5a23.63,23.63,0,0,1,9.18,1.88,27.54,27.54,0,0,1,8,5.08,25.29,25.29,0,0,1,5.66,7.54,20.57,20.57,0,0,1,2.15,9.26A24.4,24.4,0,0,1,55.74,38a21.92,21.92,0,0,1-5,7.54,24.2,24.2,0,0,1-7.89,5.08A27.14,27.14,0,0,1,32.5,52.5q-1.64,0-4.53-.2a36.87,36.87,0,0,1-4.45-.51L15,57.5V48.67A29.06,29.06,0,0,1,7.7,40,23.1,23.1,0,0,1,5,28.75ZM24.06,56.88q1.48.23,4.18.43t4.26.2a31.21,31.21,0,0,0,12.27-2.34,29.15,29.15,0,0,0,9.49-6.33,28.07,28.07,0,0,0,6.09-9.26A29.22,29.22,0,0,0,62.5,28.44a24.54,24.54,0,0,0-2.58-11.05,30.68,30.68,0,0,0-6.8-9.06,32.41,32.41,0,0,0-9.61-6.09A28.61,28.61,0,0,0,32.5,0,35.75,35.75,0,0,0,19.84,2.23,33.25,33.25,0,0,0,9.49,8.32a28.7,28.7,0,0,0-7,9.06A24.85,24.85,0,0,0,0,28.44a30.39,30.39,0,0,0,2.54,12.5A27.9,27.9,0,0,0,10,50.86V65ZM46.25,32.5a3.73,3.73,0,1,0-2.66-1.09A3.62,3.62,0,0,0,46.25,32.5Zm-30,0a3.75,3.75,0,1,0-2.66-6.41,3.75,3.75,0,0,0,2.66,6.41Zm15,0a3.73,3.73,0,1,0-2.66-1.09A3.62,3.62,0,0,0,31.25,32.5Z"/></g></g></svg>