<svg xmlns="http://www.w3.org/2000/svg" viewBox="0 0 70 80"><defs><style>.cls-1{fill:#c8c8c8;}</style></defs><title>Asset 13</title><g id="Layer_2" data-name="Layer 2"><g id="Layer_1-2" data-name="Layer 1"><path class="cls-1" d="M52.5,47.5h-35a2.5,2.5,0,0,0,0,5h35a2.5,2.5,0,0,0,0-5ZM65,70a5.07,5.07,0,0,1-5,5H10a4.81,4.81,0,0,1-3.52-1.48A4.81,4.81,0,0,1,5,70V20a4.81,4.81,0,0,1,1.48-3.52A4.81,4.81,0,0,1,10,15h7.5V25h35V15H60a5.07,5.07,0,0,1,5,5ZM22.5,10H28a4.29,4.29,0,0,1,2-3.52A8.11,8.11,0,0,1,35,5a8.11,8.11,0,0,1,4.92,1.48A4.29,4.29,0,0,1,42,10H47.5V20h-25ZM60,10H52.5V5H45.78a11.6,11.6,0,0,0-4.49-3.63,15.15,15.15,0,0,0-12.58,0A11.6,11.6,0,0,0,24.22,5H17.5v5H10a9.63,9.63,0,0,0-7.07,2.93A9.63,9.63,0,0,0,0,20V70a9.63,9.63,0,0,0,2.93,7.07A9.63,9.63,0,0,0,10,80H60A10,10,0,0,0,70,70V20a9.63,9.63,0,0,0-2.93-7.07A9.63,9.63,0,0,0,60,10ZM52.5,35h-35a2.5,2.5,0,0,0,0,5h35a2.5,2.5,0,0,0,0-5Zm0,25h-35a2.5,2.5,0,0,0,0,5h35a2.5,2.5,0,0,0,0-5Z"/></g></g></svg>