<svg xmlns="http://www.w3.org/2000/svg" viewBox="0 0 77.5 80"><defs><style>.cls-1{fill:#c8c8c8;}</style></defs><title>Asset 15</title><g id="Layer_2" data-name="Layer 2"><g id="Layer_1-2" data-name="Layer 1"><path class="cls-1" d="M72.5,45H5V10A4.81,4.81,0,0,1,6.48,6.48,4.81,4.81,0,0,1,10,5H67.5A4.81,4.81,0,0,1,71,6.48,4.81,4.81,0,0,1,72.5,10Zm0,10a5.07,5.07,0,0,1-5,5H10a4.81,4.81,0,0,1-3.52-1.48A4.81,4.81,0,0,1,5,55V50H72.5ZM45,75H35V65H45ZM67.5,0H10A9.63,9.63,0,0,0,2.93,2.93,9.63,9.63,0,0,0,0,10V55a9.63,9.63,0,0,0,2.93,7.07A9.63,9.63,0,0,0,10,65H30V75H25a2.5,2.5,0,0,0,0,5H55a2.5,2.5,0,0,0,0-5H50V65H67.5a10,10,0,0,0,10-10V10a9.63,9.63,0,0,0-2.93-7.07A9.63,9.63,0,0,0,67.5,0Z"/></g></g></svg>