<svg xmlns="http://www.w3.org/2000/svg" viewBox="0 0 18.75 20.25"><defs><style>.cls-1{fill:#2a2a2a;}</style></defs><title>card-icon1</title><g id="레이어_2" data-name="레이어 2"><g id="레이어_1-2" data-name="레이어 1"><path class="cls-1" d="M1,19.29l5.77-5L.75,9v9.75a.73.73,0,0,0,.06.3A.61.61,0,0,0,1,19.29Zm16.79,0h0a.61.61,0,0,0,.17-.24.73.73,0,0,0,.06-.3V9l-6,5.27ZM7.12,15,1.88,19.5h15L11.62,15ZM2.25,9.26v-2l-1.13,1Zm14.25-2v2l1.12-1Zm-5.67-5L9.38,1,7.92,2.25Zm-4,0L9.38,0l2.55,2.25H15a1.47,1.47,0,0,1,1.5,1.5V6.28l2.25,2v10.5a1.5,1.5,0,0,1-1.5,1.5H1.5A1.47,1.47,0,0,1,0,18.75V8.25l2.25-2V3.75a1.47,1.47,0,0,1,1.5-1.5Zm2.79,12h1.27l0,0h-.1l4.95-4.41V3.75A.75.75,0,0,0,15,3H3.75A.75.75,0,0,0,3,3.75V9.89l4.92,4.34Z"/></g></g></svg>