<svg xmlns="http://www.w3.org/2000/svg" viewBox="0 0 14.25 22.5"><defs><style>.cls-1{fill:#2a2a2a;}</style></defs><title>card-icon2</title><g id="레이어_2" data-name="레이어 2"><g id="레이어_1-2" data-name="레이어 1"><path class="cls-1" d="M6,17.25V18h6v-.75Zm-2.25,0V18H3v-.75Zm-1.5,1.5H4.5V16.5H2.25ZM6,13.5v.75h6V13.5Zm-2.25,0v.75H3V13.5ZM2.25,15H4.5V12.75H2.25Zm1.5-5.25v.75H3V9.75Zm-1.5,1.5H4.5V9H2.25ZM6,9.75v.75h6V9.75ZM7.12,3a.38.38,0,0,0,.38-.38.36.36,0,0,0-.11-.26.37.37,0,0,0-.27-.11.38.38,0,0,0-.37.37.37.37,0,0,0,.11.27A.36.36,0,0,0,7.12,3ZM12,4.5h.75a.75.75,0,0,1,.75.75V21a.75.75,0,0,1-.75.75H1.5A.73.73,0,0,1,1,21.53.73.73,0,0,1,.75,21V5.25A.73.73,0,0,1,1,4.72.73.73,0,0,1,1.5,4.5h.75A1.44,1.44,0,0,0,2.7,5.57a1.43,1.43,0,0,0,1,.43H10.5a1.43,1.43,0,0,0,1.05-.43A1.44,1.44,0,0,0,12,4.5ZM4.5,2.25H3.75a1.43,1.43,0,0,0-1,.43,1.44,1.44,0,0,0-.45,1.07H1.5A1.47,1.47,0,0,0,0,5.25V21a1.43,1.43,0,0,0,.43,1.05,1.44,1.44,0,0,0,1.07.45H12.75a1.47,1.47,0,0,0,1.5-1.5V5.25a1.5,1.5,0,0,0-1.5-1.5H12a1.44,1.44,0,0,0-.45-1.07,1.43,1.43,0,0,0-1.05-.43H9.75A2.14,2.14,0,0,0,9.09.66,2.14,2.14,0,0,0,7.5,0H6.75A2.14,2.14,0,0,0,5.16.66,2.14,2.14,0,0,0,4.5,2.25ZM5.25,3V2.25a1.41,1.41,0,0,1,.45-1,1.41,1.41,0,0,1,1-.45H7.5A1.47,1.47,0,0,1,9,2.25V3h1.5a.75.75,0,0,1,.75.75V4.5a.75.75,0,0,1-.75.75H3.75A.75.75,0,0,1,3,4.5V3.75A.75.75,0,0,1,3.75,3Z"/></g></g></svg>