<svg xmlns="http://www.w3.org/2000/svg" viewBox="0 0 19.38 21.39"><defs><style>.cls-1{fill:#2a2a2a;}</style></defs><title>card-icon4</title><g id="레이어_2" data-name="레이어 2"><g id="레이어_1-2" data-name="레이어 1"><path class="cls-1" d="M6.78,2.85a.34.34,0,0,1-.26-.1.32.32,0,0,1-.1-.25.34.34,0,0,1,.36-.36.33.33,0,0,1,.25.1.34.34,0,0,1,.1.26.32.32,0,0,1-.1.25A.33.33,0,0,1,6.78,2.85ZM5,2.85H3.57a.72.72,0,0,0-.72.72v.71a.69.69,0,0,0,.21.5A.71.71,0,0,0,3.57,5H10a.71.71,0,0,0,.51-.21.69.69,0,0,0,.21-.5V3.57A.72.72,0,0,0,10,2.85H8.56V2.14A1.42,1.42,0,0,0,7.13.71H6.42a1.33,1.33,0,0,0-1,.43,1.33,1.33,0,0,0-.43,1Zm7.85,5V5a.69.69,0,0,0-.21-.5.71.71,0,0,0-.51-.21h-.71a1.35,1.35,0,0,1-.42,1,1.4,1.4,0,0,1-1,.42H3.57a1.4,1.4,0,0,1-1-.42,1.35,1.35,0,0,1-.42-1H1.43a.71.71,0,0,0-.51.21A.69.69,0,0,0,.71,5V20a.69.69,0,0,0,.21.5.71.71,0,0,0,.51.21H12.12a.71.71,0,0,0,.51-.21.69.69,0,0,0,.21-.5V13.55L8.56,17.83,5,18.54,5.71,15Zm.71,5V20a1.4,1.4,0,0,1-1.43,1.42H1.43a1.39,1.39,0,0,1-1-.42A1.41,1.41,0,0,1,0,20V5A1.4,1.4,0,0,1,1.43,3.57h.71a1.37,1.37,0,0,1,.42-1,1.43,1.43,0,0,1,1-.41h.71A2.11,2.11,0,0,1,4.9.62,2.09,2.09,0,0,1,6.42,0h.71A2.09,2.09,0,0,1,8.65.62a2.11,2.11,0,0,1,.62,1.52H10a1.43,1.43,0,0,1,1,.41,1.37,1.37,0,0,1,.42,1h.71a1.39,1.39,0,0,1,1,.42,1.41,1.41,0,0,1,.41,1V7.13l2.56-2.56a1.4,1.4,0,0,1,1-.42,1.38,1.38,0,0,1,1,.42l.85.85a1.34,1.34,0,0,1,.41,1,1.43,1.43,0,0,1-.41,1Zm-7.2,2.58-.47,2.21,2.25-.45ZM17.23,8.16l1.22-1.23a.72.72,0,0,0,.2-.51.7.7,0,0,0-.2-.51l-.84-.83a.69.69,0,0,0-1,0L15.38,6.31Zm-.52.51L14.87,6.82l-8,8,1.85,1.84Z"/></g></g></svg>