<svg xmlns="http://www.w3.org/2000/svg" viewBox="0 0 15.13 15.14"><defs><style>.cls-1{fill:#2a2a2a;}</style></defs><title>card-icon5</title><g id="레이어_2" data-name="레이어 2"><g id="레이어_1-2" data-name="레이어 1"><path class="cls-1" d="M.75,11.39,0,15.14l3.75-.75,11-10.94a1.49,1.49,0,0,0,.43-1.05,1.41,1.41,0,0,0-.43-1.06L13.8.45a1.45,1.45,0,0,0-2.1,0Zm.68.47L3.3,13.71l-2.36.47ZM12.87,4.22,10.92,2.27,12.21,1a.7.7,0,0,1,.53-.23.72.72,0,0,1,.53.23l.89.87a.8.8,0,0,1,0,1.08Zm-.54.54L3.87,13.22l-1.95-2,8.46-8.46Z"/></g></g></svg>