<svg xmlns="http://www.w3.org/2000/svg" viewBox="0 0 13.52 19.09"><defs><style>.cls-1{fill:#2a2a2a;}</style></defs><title>card-icon3</title><g id="레이어_2" data-name="레이어 2"><g id="레이어_1-2" data-name="레이어 1"><path class="cls-1" d="M9.15,11.14h0A3.57,3.57,0,0,1,5.57,7.56,3.55,3.55,0,0,1,9.15,4a3.57,3.57,0,0,1,3.58,3.58,3.43,3.43,0,0,1-1.05,2.53A3.43,3.43,0,0,1,9.15,11.14Zm-.4.77v5.27l-4-4-4,4V2.39a1.53,1.53,0,0,1,.46-1.12A1.48,1.48,0,0,1,2.39.8H7.16a1.52,1.52,0,0,1,1.13.46,1.51,1.51,0,0,1,.46,1.13v.82A4.24,4.24,0,0,0,5.93,4.6a4.2,4.2,0,0,0-1.16,3,4.21,4.21,0,0,0,1.16,3A4.24,4.24,0,0,0,8.75,11.91Zm.8,0h0a4.24,4.24,0,0,0,2.82-1.39,4.21,4.21,0,0,0,1.15-3,4.19,4.19,0,0,0-1.15-3A4.24,4.24,0,0,0,9.55,3.21V2.39A2.3,2.3,0,0,0,8.85.7,2.28,2.28,0,0,0,7.16,0H2.39A2.26,2.26,0,0,0,.7.7,2.26,2.26,0,0,0,0,2.39v16.7l4.77-4.77,4.78,4.77ZM6.36,7.16V8H8.75v2.38h.8V8h2.38v-.8H9.55V4.77h-.8V7.16Z"/></g></g></svg>