<svg xmlns="http://www.w3.org/2000/svg" viewBox="0 0 12.21 17.36"><defs><style>.cls-1{fill:#2a2a2a;}</style></defs><title>card-icon7</title><g id="레이어_2" data-name="레이어 2"><g id="레이어_1-2" data-name="레이어 1"><path class="cls-1" d="M4.82,12.21a2.17,2.17,0,0,0,1.59-.66,2.23,2.23,0,0,0,0-3.17,2.18,2.18,0,0,0-1.59-.67,2.21,2.21,0,0,0-1.59.67,2.23,2.23,0,0,0,0,3.17A2.2,2.2,0,0,0,4.82,12.21ZM8.36,1v2.9A.65.65,0,0,0,9,4.5h2.37ZM7.71.64H1.29a.65.65,0,0,0-.65.65V16.07a.62.62,0,0,0,.19.45.62.62,0,0,0,.46.19h9.64a.61.61,0,0,0,.45-.19.58.58,0,0,0,.19-.45V5.14H9a1.21,1.21,0,0,1-.91-.37,1.24,1.24,0,0,1-.38-.91ZM8,0h.32l3.85,4.5V16.07a1.26,1.26,0,0,1-1.28,1.29H1.29A1.24,1.24,0,0,1,.37,17,1.26,1.26,0,0,1,0,16.07V1.29A1.27,1.27,0,0,1,.38.38,1.27,1.27,0,0,1,1.29,0ZM6.63,12.23a3.53,3.53,0,0,1-.83.46,2.88,2.88,0,0,1-1,.17A2.77,2.77,0,0,1,2.77,12a2.78,2.78,0,0,1-.84-2,2.78,2.78,0,0,1,.84-2,2.77,2.77,0,0,1,2.05-.85,2.75,2.75,0,0,1,2.05.85,2.78,2.78,0,0,1,.84,2,2.64,2.64,0,0,1-.17,1,3.08,3.08,0,0,1-.45.84l3.44,3.44-.46.46Z"/></g></g></svg>