<svg xmlns="http://www.w3.org/2000/svg" xml:space="preserve" width="1439.3024" height="200" viewBox="0 0 1439.3024 199.99999"><path d="M155.424 416.23c-2.763 0-5.185-2.166-5.185-4.888v-.382c0-2.706 2.422-4.876 5.185-4.876h2.173c1.088 0 2.086.303 2.912.825 1.373.882 2.267 2.358 2.267 4.051v5.27h-7.352m4.409-5.27c0-1.163-.996-2.106-2.236-2.106h-2.173c-1.241 0-2.237.943-2.237 2.106v.382c0 1.18.996 2.119 2.237 2.119h4.409z" style="fill:#a4262c;fill-opacity:1;fill-rule:nonzero;stroke:none" transform="matrix(4.55442 0 0 -4.55442 -643.53 2008.972)"/><path d="M186.757 397.327h-12.705c-3.069 0-5.905.954-8.229 2.566a14.365 14.365 0 0 0-8.226-2.566h-2.173c-7.823 0-14.126 6.161-14.126 13.575v.498c0 7.43 6.303 13.586 14.183 13.586h4.352v2.488c0 1.159-.996 2.115-2.236 2.115h-12.703v2.764h12.703a5.393 5.393 0 0 0 2.912-.83c1.373-.874 2.267-2.345 2.267-4.05v-5.258h-7.295c-6.24 0-11.232-4.929-11.232-10.815v-.498c0-5.869 4.992-10.795 11.295-10.795h1.996c2.242 0 4.299.625 6.05 1.69.829.51 1.57 1.105 2.233 1.804a10.965 10.965 0 0 1 2.246-1.804 11.525 11.525 0 0 1 6.035-1.69h12.653zM176.23 432.353h-2.178a5.415 5.415 0 0 1-2.916-.832c-1.367-.872-2.266-2.343-2.266-4.047v-5.26h7.36c2.755 0 5.18 2.157 5.18 4.87v.39c0 2.715-2.425 4.879-5.18 4.879m2.226-5.269c0-1.165-.99-2.105-2.227-2.105h-4.41v2.495c0 1.159.998 2.115 2.233 2.115h2.177c1.237 0 2.227-.956 2.227-2.115z" style="fill:#a4262c;fill-opacity:1;fill-rule:nonzero;stroke:none" transform="matrix(4.55442 0 0 -4.55442 -643.53 2008.972)"/><path d="M186.757 406.084h-12.705a5.526 5.526 0 0 0-2.916.818c-1.367.889-2.266 2.365-2.266 4.058v5.27h7.3c6.237 0 11.231 4.93 11.231 10.795v.505c0 5.88-4.994 10.808-11.293 10.808h-2.004a11.43 11.43 0 0 1-6.035-1.705 11.432 11.432 0 0 1-2.246-1.786 11.489 11.489 0 0 1-2.232 1.786 11.485 11.485 0 0 1-6.051 1.705h-12.646v2.762h12.703c3.073 0 5.908-.948 8.226-2.547a14.47 14.47 0 0 0 8.229 2.547h2.177c7.819 0 14.119-6.149 14.119-13.57v-.505c0-7.428-6.3-13.564-14.178-13.564h-4.35v-2.501c0-1.163.997-2.106 2.232-2.106h12.705z" style="fill:#a4262c;fill-opacity:1;fill-rule:nonzero;stroke:none" transform="matrix(4.55442 0 0 -4.55442 -643.53 2008.972)"/><path d="M174.104 404.533c-1.287 0-2.492.35-3.533.94a6.453 6.453 0 0 0-2.271 2.152 6.188 6.188 0 0 0-1.008 3.107c0 .059-.006 4.608-.006 6.393V427.598c0-.928.006.02.006.093a6.238 6.238 0 0 0 1.008 3.131 6.67 6.67 0 0 0 2.271 2.147 7.113 7.113 0 0 0 3.533.942h2.004c3.76 0 6.823-2.893 6.823-6.437v-.449c0-3.543-3.064-6.422-6.823-6.422h-7.238v-2.771h7.238c5.417 0 9.77 4.104 9.77 9.193v.449c0 5.098-4.353 9.198-9.77 9.198h-2.004c-1.816 0-3.521-.479-4.98-1.285a9.985 9.985 0 0 1-2.275-1.762 8.477 8.477 0 0 1-1.026-1.281 8.689 8.689 0 0 1-1.02 1.28 9.473 9.473 0 0 1-2.28 1.763 10.225 10.225 0 0 1-4.983 1.285h-12.646v-2.76h12.646a7.048 7.048 0 0 0 3.533-.943 6.68 6.68 0 0 0 2.283-2.147 6.027 6.027 0 0 0 .998-3.13c.014-.075.014-.14.014-.218V410.96c0-.08 0-.15-.014-.228a5.978 5.978 0 0 0-.998-3.107 6.463 6.463 0 0 0-2.283-2.152 7.096 7.096 0 0 0-3.533-.94h-1.996c-3.766 0-6.83 2.893-6.83 6.427v.44c0 3.551 3.064 6.432 6.83 6.432h7.232v2.771h-7.232c-5.418 0-9.781-4.095-9.781-9.203v-.44c0-5.099 4.363-9.201 9.781-9.201h1.996c1.834 0 3.531.477 4.982 1.29a9.891 9.891 0 0 1 2.282 1.763c.377.395.72.818 1.02 1.28a8.46 8.46 0 0 1 1.025-1.28 10.314 10.314 0 0 1 2.275-1.763 10.23 10.23 0 0 1 4.98-1.29h12.653v2.774h-12.653z" style="fill:#ed1248;fill-opacity:1;fill-rule:nonzero;stroke:none" transform="matrix(4.55442 0 0 -4.55442 -643.53 2008.972)"/><path d="M407.034 438.572s-.015 1.014-.346 1.438c-.353.448-.96.681-1.49.839-.38.112-1.52.236-1.52.236-.488.025-.988.073-1.195-.236 0 0-.15-.208.043-.453.127-.162.405-.285.612-.386.218-.102.582-.272.875-.489.646-.505.566-1.101.566-1.101v-13.988c.004-1.09.541-1.96 1.227-1.96.68 0 1.232.884 1.232 1.984 0 .018-.004.037-.004.057v14.059zM402.429 417.053v-2.196c0-.008.01-.302.342-.302.328 0 1.656-.065 1.656-.065h1.75s1.058-.03 1.38.034c.325.058.547.214.547.214s.28.229.625.229c.292 0 .854-.19.854-.19s.94-.29 1.26-.447c.476-.23.6-.653.535-.975-.07-.32-.36-.5-.856-.54l-.734-.035-.615.019-2.383.111h-4.49s-1.139-.045-1.725.2c-.43.18-.793.552-.793 1.265 0 .15.014.313.047.49l.059 2.127-.035 1.426s.023.465-.362.768c0 0-.709.488-.957.609-.219.107-.488.228-.611.402-.197.247-.022.475-.022.475.205.31.702.26 1.186.236 0 0 1.06-.074 1.492-.236.512-.194 1.143-.393 1.49-.855.33-.42.342-1.435.342-1.435l.018-1.33zM397.048 432.818c.014.002.324-.015.324-.015.055-.018.113-.078.045-.237-.107-.391-.434-.931-.979-1.615l-1.877-2.023-2.277-1.923-2.15-1.485-.588-.514c-.145-.201-.12-.425.08-.651a.694.694 0 0 1 .656-.195s.096-.027.9.359c.807.368 2.917 1.647 2.917 1.647l2.545 1.81c-.055 0 1.76-1.65 1.76-1.65l1.67-1.807c.232-.292.6-.414 1.081-.369.489.038.735.48.809 1.067.074.582-.088 1.215-.506 1.521l-1.055.69-1.615.933s-1.142.6-1.15.609c.07 0 1.656 1.688 1.656 1.688s.922 1.242 1.469 2.096c.54.87-.229 1.219-.229 1.219s-.404.267-.992.502c-.455.175-1.197-.075-1.775-.157-.592-.078-1.762-.1-1.762-.1l-1.483.032-1.404.063-1.222.158c-.471.086-.848.004-1.116-.246a.407.407 0 0 1-.144-.318c.02-.192.193-.406.539-.64.629-.41 1.275-.64 1.502-.69 0 0 .63-.136.797-.11.388.06.523.242.904.318l2.67.033zM323.786 428.393c3.098.892 6.633 4.311 6.64 4.32 0-.05 2.813-1.21 4.778-3.608.46-.567.961-.61 1.274-.546 1.138.242.91 1.222.806 1.617-.092.342-.303.802-1.832 1.636-2.357 1.324-4.254 1.912-4.264 1.915.06.004.872 1.214.872 1.214s.712 1.137.666 1.754c-.043.576-.627.688-.899.73-.267.042-1.795.141-1.795.141l-1.144.045c-.553.041-.889-.095-1.004-.418a.595.595 0 0 1-.033-.184c0-.247.212-.445.623-.59.521-.165.838-.331.859-.518a1.043 1.043 0 0 0-.1-.572c-1.476-3.157-5.955-6.085-5.955-6.085-.203-.182-.257-.386-.162-.619.11-.215.405-.309.67-.232zM332.19 421.998c.026 0 1.555.094 1.555.094s1.606.248 1.606-1.063c0-.808-.004-1.601-.004-1.601s-.02-1.37-.02-1.758c0-.386-.15-.856-.824-.856-.674 0-3.986.037-3.986.037s-1.477-.006-2.215-.006c-.748 0-.625-.794-.625-.794v-1.217c0-.354.31-.422.521-.422.21 0 1.008-.092 1.008-.092l2.146.012s1.05-.031 1.372.031c.322.065.55.217.55.217s.28.234.62.234c.292 0 .855-.195.855-.195s1.293-.45 1.297-.45c.414-.214.596-.49.525-.81-.064-.324-.355-.508-.873-.549l-.75-.03-.883.03-2.392.043-4.037-.05-1.856.082c-.648.142-.91.853-.783 1.777l.031 1.566-.068.711c-.033.153-.145.243-.34.28-.47.113-.736.369-.736.649.008.278.127.358.244.413.12.055.572.086.572.086l2.73-.078s3.907.078 4.784.078c.623 0 .564.713.564.713s-.023.62-.023.931c0 .59-.797.517-.797.517s-3.356.01-3.565-.017c-.615-.064-1.263-.278-1.656-.343-.166-.034-.793.111-.793.111-.242.047-.886.274-1.517.675-.346.235-.528.446-.543.644a.409.409 0 0 0 .144.32c.272.249.645.334 1.117.242l1.237-.153 1.408-.06 2.045-.033 1.965.033.39.05z" style="fill:#44403e;fill-opacity:1;fill-rule:nonzero;stroke:none" transform="matrix(4.55442 0 0 -4.55442 -643.53 2008.972)"/><path d="M339.212 426.975s-.563.195-.852.195c-.343 0-.625-.23-.625-.23s-.228-.163-.543-.218c-.322-.07-1.382-.038-1.382-.038l-1.997-.032-10.472.032-1.39.066-1.225.153c-.471.084-.848.01-1.12-.245a.382.382 0 0 1-.134-.318c.015-.196.187-.403.533-.643.633-.394 1.28-.626 1.508-.674 0 0 .627-.136.797-.11.386.064.517.241.896.316.092.014 2.836.03 5.775.039v-1.619c.008-1.071.557-1.946 1.229-1.946.678 0 1.228.886 1.228 1.974l-.002.054v1.536c2.53.008 4.706.008 4.706.008l2.38-.113.89-.03.737.03c.496.041.82.22.854.55.062.702-1.791 1.263-1.791 1.263zM256.827 417.053v-2.196c0-.008.01-.302.343-.302.34 0 1.644-.065 1.644-.065h1.751s1.069-.03 1.394.034c.321.058.546.214.546.214s.282.229.622.229c.293 0 .855-.19.855-.19s.943-.29 1.262-.447c.485-.23.605-.653.54-.975-.068-.32-.368-.5-.86-.54l-.738-.035-.614.019-2.393.111H256.7s-1.14-.045-1.722.2c-.434.18-.791.552-.791 1.265 0 .15.008.313.04.49l.058 2.127-.036 1.426s.027.465-.356.768c0 0-.715.488-.97.609-.22.107-.491.228-.615.402-.196.247-.019.475-.019.475.206.31.713.26 1.198.236 0 0 1.06-.074 1.493-.236.512-.194 1.14-.393 1.493-.855.326-.42.338-1.435.338-1.435l.016-1.33zM253.814 434.313a.412.412 0 0 0 .325-.311l.075-.8.062-1.722-.062-2.5c-.106-.921.083-1.498.574-1.709.47-.21 1.078-.311 1.809-.311l2.983.044s3.973-.043 4.534-.043c.568 0 .62.555.62.555.04.052-.018 2.52-.015 2.52l.054 2.946s.038.5.165.897c.117.397.221.667.191.9-.05.35-1.208.905-1.592 1.112-.385.203-.85 0-.85 0h.005s-.726-.311-.96-.341c-.23-.03-2.652-.025-2.652-.025l-2.424.03-2.764.061c-.599.018-.913-.163-.948-.542-.034-.375.258-.634.87-.762m3.136-.31c.005-.037 5.173 0 5.177 0-.004 0 0-5.452 0-5.452-.004.04-5.177 0-5.177 0z" style="fill:#44403e;fill-opacity:1;fill-rule:nonzero;stroke:none" transform="matrix(4.55442 0 0 -4.55442 -643.53 2008.972)"/><path d="M268.02 425.268s-.558.191-.865.191c-.339 0-.617-.228-.617-.228s-.228-.162-.55-.221c-.33-.063-1.386-.033-1.386-.033l-1.964-.03-10.49.03-1.386.062-1.232.155c-.476.086-.86.01-1.13-.239a.367.367 0 0 1-.137-.318c.013-.2.185-.414.543-.657.632-.394 1.28-.625 1.515-.671 0 0 .628-.138.798-.112.386.065.52.24.899.315.09.014 2.836.03 5.772.039v-3.081c.008-1.082.556-1.952 1.229-1.952.68 0 1.23.882 1.23 1.98 0 .018-.004.04-.004.055v2.998c2.542.006 4.682.006 4.682.006l2.404-.112.894-.03.734.03c.496.04.82.223.85.547.065.717-1.79 1.276-1.79 1.276zM360.077 435.693c-.348.266-.752.285-1.482.239-.26-.01-.748-.055-1.532-.127-.39-.037-3.078-.108-3.078-.108l-1.644.03-1.381.064-1.227.155c-.472.088-.845.005-1.115-.247-.107-.089-.158-.197-.142-.314.01-.196.189-.403.54-.642.626-.396 1.274-.624 1.499-.675 0 0 .632-.134.798-.11.385.062.522.241.899.315.2.04 4.072.042 4.072.042s1.326.123 1.326-.204l.018-.289v-1.177l-.037-1.647-.01-2.218h.01l-.01-.234v-.04c-.035-1.075.47-1.977 1.154-2.002.676-.026 1.258.84 1.303 1.925.002.029.002.109.01.145l.06 2.643.094 1.247.063.861s.048.46.062.71c.024.251.254 1.277-.25 1.658z" style="fill:#44403e;fill-opacity:1;fill-rule:nonzero;stroke:none" transform="matrix(4.55442 0 0 -4.55442 -643.53 2008.972)"/><path d="M362.374 424.768s-.559.193-.855.193c-.368 0-.643-.23-.643-.23s-.229-.164-.547-.221c-.322-.065-1.377-.033-1.377-.033l-1.96-.032-.991.004-.027 2.373.044 1.355s.041 1.223-.642 1.886c-.4.37-.666.474-1.092.537-.387.066-1.15.104-1.15.104-.617 0-.998-.07-1.133-.39 0 0-.092-.261.04-.45.198-.27.981-.485 1.214-.73.248-.257.236-.74.236-.74v-3.938l-2.49.01-.027 2.027.04 1.363s.047 1.22-.646 1.885c-.387.369-.752.474-1.174.537-.387.064-1.152.101-1.152.101-.588 0-.969-.072-1.102-.387 0 0-.117-.283.041-.449.13-.158.416-.306.639-.408.213-.098.232-.119.654-.373.303-.202.283-.719.283-.719v-3.572l-2.044.006-1.397.064-1.252.155c-.476.084-.85.008-1.117-.24a.41.41 0 0 1-.14-.33c.011-.2.189-.403.534-.646.631-.392 1.297-.626 1.534-.673 0 0 .625-.137.81-.11.381.065.516.24.895.315.09.014 12.896.045 12.896.045l2.41-.113.893-.03.732.03c.498.04.819.224.852.55.068.703-1.79 1.274-1.79 1.274zM244.669 426.467s-.568.195-.863.195c-.341 0-.621-.23-.621-.23s-.228-.16-.545-.22c-.323-.063-1.378-.032-1.378-.032l-1.98-.03-10.478.03-1.397.062-1.23.154c-.477.084-.852.008-1.12-.24a.374.374 0 0 1-.14-.318c.014-.197.188-.403.537-.644.635-.392 1.281-.626 1.512-.673 0 0 .635-.145.806-.11.387.064.521.242.9.317.094.014 2.829.03 5.756.038v-2.593c.009-1.077.555-1.949 1.234-1.949.689 0 1.242.883 1.242 1.976v2.566c2.527.007 4.683.007 4.683.007l2.383-.115.902-.027.744.027c.494.043.819.223.85.551.066.702-1.797 1.258-1.797 1.258z" style="fill:#44403e;fill-opacity:1;fill-rule:nonzero;stroke:none" transform="matrix(4.55442 0 0 -4.55442 -643.53 2008.972)"/><path d="M241.937 420.692c-.354.262-.763.272-1.495.239a51.956 51.956 0 0 1-1.535-.132c-.39-.036-3.65-.106-3.65-.106l-2.457.032-1.399.066-1.232.147c-.473.093-.842.01-1.114-.237-.103-.1-.15-.203-.14-.32.014-.194.19-.413.537-.656.628-.393 1.28-.624 1.51-.678 0 0 .628-.133.803-.104.396.057.528.242.909.317.198.037 5.45.04 5.45.04s1.315.124 1.315-.207l.02-.29v-1.254l-.036-1.658-.006-.85h.006l-.01-.229v-.038c-.035-1.076.48-1.966 1.17-1.994.68-.026 1.267.835 1.308 1.924 0 .022 0 .106.002.14h.002l.066 1.275.093 1.248.062.938.073.717c.015.253.25 1.287-.253 1.67zM241.373 435.691c-.349.268-.757.284-1.5.247-.257-.02-.749-.061-1.524-.133-.393-.037-2.809-.104-2.809-.104l-1.62.027-1.388.066-1.238.151c-.473.09-.853.008-1.12-.24a.405.405 0 0 1-.148-.32c.02-.194.199-.405.543-.64.631-.395 1.292-.626 1.524-.679 0 0 .63-.13.799-.105.384.059.517.242.896.311.201.041 3.78.044 3.78.044s1.343.088 1.331-.494l-.04-2.186-.034-2.722-.002-.02v-.02c-.034-1.087.477-1.98 1.15-2.007.694-.026 1.28.834 1.33 1.933 0 .034.159 2.649.159 2.649l.096 1.87s.05.467.07.722c.021.246.25 1.271-.255 1.65zM207.192 434.026c.225-.036 1.222-.02 1.222-.02l1.28.081c.813.06 1.7.815 1.24 1.347-.212.253-.728.357-1.556.328 0 0-1.512-.057-1.867-.031-.36.021-1.063.159-1.063.159-.576.123-1.07.15-1.323-.103-.343-.342.63-1.54 2.067-1.76zM204.535 431.229c.39.06.513.28.897.314.516.049 4.063.053 4.063.053l2.399-.115.888-.032.735.032c.499.044.785.233.852.55.064.324-.057.653-.52.818-.461.174-1.272.457-1.272.457s-.558.199-.846.199c-.346 0-.623-.237-.623-.237s-.228-.21-.562-.22c-2.131-.059-5.108-.048-6.365.036-.682.047-1.23.155-1.23.155-.475.086-.848 0-1.124-.243-.103-.105-.153-.219-.141-.331.012-.197.19-.41.546-.639.628-.397 1.275-.64 1.513-.692 0 0 .621-.127.79-.106zM222.686 430.475c-.39.146-1.542.394-1.542.394s-.415.1-.711.028c-.297-.061-.551-.217-.551-.217s-.253-.186-.533-.23c-.272-.05-.854 0-.854 0v8.122s.013 1.014-.32 1.438c-.354.448-.964.681-1.492.839-.376.112-1.501.236-1.501.236-.484.025-.986.073-1.194-.236 0 0-.152-.208.042-.453.126-.162.403-.285.614-.386a7.29 7.29 0 0 0 .855-.489c.496-.322.564-1.101.564-1.101v-13.988c.008-1.09.55-1.96 1.227-1.96.682 0 1.205.884 1.205 1.984v4.513l2.017-.042h1.845c.504 0 .797.21.873.63.078.415-.153.777-.544.917zM213.904 417.053v-2.196c0-.008.012-.302.343-.302.33 0 1.635-.065 1.635-.065h1.756s1.06-.03 1.388.034c.325.058.551.214.551.214s.282.229.623.229c.294 0 .862-.19.862-.19s.94-.29 1.263-.447c.475-.23.592-.653.53-.975-.065-.32-.36-.5-.852-.54l-.738-.035-.619.019-2.394.111h-4.472s-1.141-.045-1.724.2c-.432.18-.791.552-.791 1.265 0 .15.01.313.042.49l.058 2.127-.036 1.426s.026.465-.367.768c0 0-.72.488-.968.609-.218.107-.488.228-.614.402-.194.247-.02.475-.02.475.312.31.707.26 1.196.236 0 0 1.07-.074 1.502-.236.512-.194 1.14-.393 1.492-.855.328-.42.34-1.435.34-1.435l.014-1.33zM208.034 430.942c-2.6 0-4.691-1.657-4.691-3.71 0-2.048 2.092-3.718 4.691-3.718 2.593 0 4.695 1.67 4.695 3.717 0 2.054-2.102 3.711-4.695 3.711m0-5.93c-1.106 0-2.022.992-2.022 2.22 0 1.226.916 2.233 2.022 2.233 1.108 0 2.004-1.007 2.004-2.234s-.896-2.22-2.004-2.22zM276.963 436.547c.004 0 .65-.492.94-.646a2.26 2.26 0 0 1 .805-.237c.229-.025 1.23-.02 1.23-.02l1.276.08c.806.063 1.255.374 1.348.915a.522.522 0 0 1-.114.441c-.218.262-.723.37-1.549.342 0 0-1.51-.055-1.87-.033-.356.02-1.055.158-1.055.158-.56.122-1.027.088-1.325-.105-.114-.075-.18-.168-.183-.272-.004-.188.157-.386.497-.623zM276.28 433.127c.404.064.542.246.928.322.21.043 4.043.043 4.043.043l2.378-.115.893-.025.763.025c.495.048.777.23.85.553.067.32-.106.594-.52.808-.005 0-1.296.45-1.296.45s-.56.195-.851.195c-.342 0-.625-.23-.625-.23s-.225-.159-.541-.22c-.327-.062-1.376-.033-1.376-.033l-1.965-.029-1.62.03-1.42.064-1.228.156c-.474.082-.846.001-1.115-.245-.1-.097-.152-.202-.14-.316.011-.198.186-.404.541-.641.623-.396 1.27-.63 1.503-.677 0 0 .622-.133.797-.115z" style="fill:#44403e;fill-opacity:1;fill-rule:nonzero;stroke:none" transform="matrix(4.55442 0 0 -4.55442 -643.53 2008.972)"/><path d="M293.934 428.273c-.397.147-1.569.41-1.569.41s-.41.096-.708.03c-.3-.072-.546-.234-.546-.234s-.26-.188-.535-.228c-.271-.047-.84 0-.84 0v7.903s.015 1.028-.317 1.451c-.355.45-.974.687-1.5.845-.378.107-1.5.23-1.5.23-.476.025-.98.078-1.183-.23 0 0-.159-.21.043-.455.124-.163.397-.286.612-.39.218-.098.565-.275.84-.494.655-.51.573-1.113.573-1.113v-10.781l-6.182-.23.057 1.921c.819.13-3.314.13-2.483-.04 0 0-.037-1.429-.047-1.981l-3.32-.121h-1.388l-1.23.093c-.48.066-.849-.032-1.1-.296-.1-.098-.11-.297-.094-.41.027-.192.208-.4.569-.615.643-.364 1.606-.735 1.837-.775 0 0 .63-.107.797-.07.386.075.51.262.88.354.172.04 8.932.51 11.704.656v-2.465s-.004-.009-.004-.017c0-.006.004-.006.004-.01v-.012c.006-1.09.551-1.958 1.231-1.958.677 0 1.21.888 1.21 1.98 0 .019-.01.037-.01.058v5.496l2.01-.053h1.851c.51 0 .8.219.88.635.074.415-.155.775-.543.916z" style="fill:#44403e;fill-opacity:1;fill-rule:nonzero;stroke:none" transform="matrix(4.55442 0 0 -4.55442 -643.53 2008.972)"/><path d="M279.92 433.075c-2.414 0-4.412-1.44-4.412-3.196 0-1.764 1.998-3.188 4.412-3.188 2.417 0 4.376 1.424 4.376 3.188 0 1.757-1.96 3.196-4.376 3.196m0-4.965c-.985 0-1.781.798-1.781 1.769 0 .969.796 1.762 1.78 1.762a1.77 1.77 0 0 0 1.78-1.762c0-.97-.792-1.769-1.78-1.769zM315.661 421.225c-.006-1.096-.557-1.984-1.241-1.984-.675 0-1.214.921-1.224 2.002v14.751s.014.682-.55 1.113a4.745 4.745 0 0 1-.836.5c-.22.098-.492.229-.62.383-.191.25-.04.455-.04.455.212.309.713.262 1.188.23 0 0 1.116-.122 1.494-.23.527-.158 1.136-.394 1.491-.843.338-.426.338-1.462.338-1.462s-.006-14.896 0-14.915zM311.358 435.057c0 .475-.008 1.017-.341 1.443-.349.453-.988.7-1.513.861-.382.106-1.488.23-1.488.23-.49.034-.984.08-1.193-.23 0 0-.15-.215.041-.468.123-.155.398-.288.62-.383a7.05 7.05 0 0 0 .834-.502 1.32 1.32 0 0 0 .559-1.1v-.887l-1.864.08-1.845.04c-.505-.06-.91.408-1.07-.12-.119-.4.316-1.283.712-1.439.382-.15 1.529-.42 1.529-.42s.419-.103.722-.046c.296.06.553.21.553.21s.259.178.527.226c.203.024.548.005.736-.014l-.005-3.524-1.733.074-1.848.036c-.502.009-.796-.197-.879-.621a.802.802 0 0 1 .522-.93c.382-.155 1.546-.429 1.546-.429s.409-.103.706-.043c.297.053.553.207.553.207s.259.178.534.22c.155.025.399.016.591.005V421.883c.013-1.086.557-1.97 1.228-1.971.708 0 1.266.895 1.266 1.988v13.156z" style="fill:#44403e;fill-opacity:1;fill-rule:nonzero;stroke:none" transform="matrix(4.55442 0 0 -4.55442 -643.53 2008.972)"/><path d="M301.7 435.313c-2.705 0-4.898-1.928-4.898-4.323 0-2.385 2.193-4.328 4.897-4.328 2.729 0 4.934 1.943 4.934 4.328 0 2.395-2.205 4.322-4.934 4.322m0-7.176c-1.268 0-2.297 1.283-2.297 2.854 0 1.573 1.029 2.859 2.297 2.859 1.297 0 2.33-1.286 2.33-2.859 0-1.571-1.033-2.854-2.33-2.854zM386.944 425.62l-1.293.45s-.562.19-.853.19c-.354 0-.631-.234-.631-.234s-.219-.154-.543-.215c-.33-.06-1.377-.028-1.377-.028l-1.969-.031-10.48.031-1.402.06-1.233.157c-.47.086-.844.004-1.111-.246-.102-.093-.15-.2-.14-.32.01-.196.187-.4.542-.635.623-.408 1.275-.646 1.5-.692 0 0 .633-.138.791-.11.39.064.526.245.908.317.06.012 1.201.016 2.76.03v-.983c0-.005-.006-.012-.006-.012 0-.007.006-.011.006-.017v-.01c.006-1.07.555-1.948 1.225-1.948.687 0 1.234.887 1.234 1.974v1.002c1.123.004 2.295.004 3.389.01V423.321c.008-1.07.568-1.948 1.244-1.948.674 0 1.232.888 1.232 1.974 0 .019-.006.037-.006.052v.961h1.836l2.4-.113.885-.03.737.03c.521.042.81.238.879.56.064.32-.114.594-.524.811zM382.358 420.56c-.35.262-.755.279-1.482.237-.26-.013-.744-.057-1.523-.13-.39-.037-3.09-.099-3.09-.099l-1.639.024-1.383.067-1.224.152c-.475.087-.848.007-1.12-.243a.408.408 0 0 1-.144-.316c.018-.207.187-.416.545-.651.621-.399 1.271-.634 1.504-.684 0 0 .623-.13.79-.104.386.06.526.24.903.314.207.038 4.072.047 4.072.047s1.32.116 1.32-.211l.014-.287v-1.164l-.03-1.664-.003-.809.002-.003-.008-.226v-.036c-.035-1.08.477-1.964 1.153-1.994.675-.028 1.265.83 1.302 1.917.002.03.002.112.006.15l.067 1.23.091 1.249.06.85s.05.463.071.713c.022.25.246 1.286-.254 1.671zM376.68 435.979c-2.865 0-5.179-2.032-5.179-4.557 0-2.51 2.314-4.557 5.18-4.557 2.88 0 5.195 2.047 5.195 4.557 0 2.525-2.314 4.557-5.195 4.557m0-7.567c-1.342 0-2.434 1.354-2.434 3.01 0 1.67 1.092 3.012 2.434 3.012 1.34 0 2.455-1.342 2.455-3.012 0-1.656-1.115-3.01-2.455-3.01zM414.124 423.13c.389.06.522.241.9.307.2.04 12.891.044 12.891.044l2.406-.106.9-.033.739.033c.482.047.777.229.842.547.066.325-.112.608-.52.827l-1.261.445s-.569.2-.856.2c-.344 0-.627-.234-.627-.234s-.228-.16-.57-.22c-.324-.056-1.373-.03-1.373-.03l-1.967-.026-10.48.025-1.391.064-1.233.155c-.494.089-.86.005-1.132-.244a.373.373 0 0 1-.147-.32c.012-.203.193-.414.543-.652.649-.396 1.297-.627 1.531-.681 0 0 .631-.133.805-.101zM419.32 437.66l.92-.635.841-.254h1.379l1.408.067c.834.037 1.295.344 1.371.888a.516.516 0 0 1-.12.438c-.23.248-.735.356-1.571.324l-1.182-.029h-.933l-.42.06-.688.126c-.597.105-1.047.068-1.332-.118-.107-.068-.17-.15-.17-.25-.004-.175.16-.374.496-.617zM417.655 433.979c.395.056.526.237.907.308.2.041 5.818.044 5.818.044l2.379-.112.896-.022.733.022c.498.045.797.237.867.552.076.32-.115.598-.533.809-.01 0-1.266.454-1.266.454s-.564.194-.86.194c-.343 0-.622-.23-.622-.23s-.223-.165-.541-.222c-.329-.064-1.387-.028-1.387-.028l-1.967-.036-3.387.036-1.386.062-1.23.152c-.466.09-.845.008-1.114-.243-.102-.094-.15-.204-.137-.32.018-.191.19-.399.533-.638.63-.399 1.278-.63 1.504-.675 0 0 .627-.137.793-.108zM422.032 433.588c-2.611 0-4.707-1.508-4.707-3.366 0-1.856 2.096-3.358 4.707-3.358 2.604 0 4.701 1.502 4.701 3.358 0 1.858-2.097 3.366-4.7 3.366m0-5.373a2.02 2.02 0 0 0-2.005 2.007 2.02 2.02 0 0 0 2.004 2.01c1.096 0 1.992-.906 1.992-2.01 0-1.1-.896-2.007-1.992-2.007zM423.575 421.787c-2.883 0-5.213-2.024-5.213-4.5 0-2.497 2.33-4.507 5.213-4.507 2.88 0 5.2 2.01 5.2 4.506 0 2.477-2.32 4.501-5.2 4.501m0-7.484c-1.402 0-2.54 1.324-2.54 2.983 0 1.638 1.138 2.98 2.54 2.98 1.412 0 2.557-1.342 2.557-2.98 0-1.659-1.145-2.983-2.557-2.983zM448.354 417.053v-2.196c0-.008.008-.302.344-.302.328 0 1.621-.065 1.621-.065h1.75s1.07-.03 1.393.034c.324.058.545.214.545.214s.285.229.635.229c.304 0 .873-.19.873-.19s.94-.29 1.26-.447c.474-.23.593-.653.53-.975-.07-.32-.357-.5-.85-.54l-.737-.035-.621.019-2.41.111h-4.456s-1.142-.045-1.724.2c-.46.18-.819.552-.819 1.265 0 .15.01.313.043.49l.055 2.127-.031 1.426s.025.465-.361.768c0 0-.707.488-.96.609-.214.107-.484.228-.607.402-.199.247-.017.475-.017.475.203.31.699.26 1.183.236 0 0 1.06-.074 1.516-.236.512-.194 1.144-.393 1.492-.855.328-.42.34-1.435.34-1.435l.014-1.33z" style="fill:#44403e;fill-opacity:1;fill-rule:nonzero;stroke:none" transform="matrix(4.55442 0 0 -4.55442 -643.53 2008.972)"/><path d="M452.938 421.467v14.683s-.015 1.032-.36 1.455c-.356.454-.968.687-1.495.838-.377.114-1.49.237-1.49.237-.477.029-.98.078-1.188-.237 0 0-.148-.203.05-.455.122-.15.398-.277.612-.383.215-.097.56-.267.838-.492.643-.511.559-1.115.559-1.115v-4.275h-.805l-1.385.064-1.226.154c-.473.091-.856.006-1.137-.245a.382.382 0 0 1-.142-.318c.015-.195.19-.404.558-.646.633-.396 1.277-.623 1.516-.675 0 0 .625-.137.789-.11.387.065.517.242.894.317l.938.04v-4.976l-12.424-.444h-1.416l-1.227.092c-.484.067-.857-.032-1.107-.293-.096-.102-.105-.292-.09-.41.026-.193.21-.396.559-.616.652-.366 1.61-.74 1.845-.778 0 0 .63-.106.797-.076.397.084.54.267.907.364.066.013 1.433.095 3.232.194v-1.857c.002-1.077.553-1.962 1.232-1.962.688 0 1.24.897 1.24 1.984 0 .019-.005.034-.005.052v1.924l6.457.348V421.384h.002c.008-1.072.558-1.957 1.226-1.957.686 0 1.246.892 1.246 1.98v.06z" style="fill:#44403e;fill-opacity:1;fill-rule:nonzero;stroke:none" transform="matrix(4.55442 0 0 -4.55442 -643.53 2008.972)"/><path d="M442.456 435.313c-2.727 0-4.967-1.935-4.967-4.33 0-2.394 2.24-4.33 4.967-4.33 2.744 0 4.975 1.936 4.975 4.33 0 2.395-2.23 4.33-4.975 4.33m0-7.196c-1.295 0-2.338 1.29-2.338 2.865 0 1.582 1.043 2.87 2.338 2.87 1.303 0 2.357-1.288 2.357-2.87 0-1.576-1.054-2.865-2.357-2.865zM212.876 397.197c-2.32 0-3.913 1.698-3.913 4.168 0 2.625 1.7 4.32 4.028 4.32 2.383 0 3.928-1.712 3.928-4.159 0-2.815-1.828-4.329-4.03-4.329h-.013m.053.913c1.77 0 2.783 1.517 2.783 3.362 0 1.652-.91 3.31-2.772 3.31-1.876 0-2.812-1.594-2.812-3.395 0-1.713 1.012-3.277 2.787-3.277h.014zM394.08 397.197c-2.3 0-3.888 1.698-3.888 4.168 0 2.625 1.696 4.32 4.006 4.32 2.422 0 3.955-1.712 3.955-4.159 0-2.815-1.814-4.329-4.062-4.329h-.012m.05.913c1.827 0 2.829 1.517 2.829 3.362 0 1.652-.902 3.31-2.814 3.31-1.858 0-2.788-1.594-2.788-3.395 0-1.713 1.002-3.277 2.76-3.277h.014zM261.323 404.76h-2.737v.926h6.636v-.926H262.5v-7.57h-1.178zM309.097 404.76h-2.752v.926h6.663v-.926h-2.747v-7.57h-1.164zM381.646 404.76h-2.721v.926h6.638v-.926h-2.753v-7.57h-1.164zM266.084 398.636c.517-.308 1.272-.54 2.065-.54 1.211 0 1.903.562 1.903 1.414 0 .76-.479 1.176-1.715 1.592-1.462.49-2.371 1.183-2.371 2.342 0 1.285 1.159 2.242 2.931 2.242.903 0 1.579-.194 1.962-.404l-.316-.87c-.284.163-.876.39-1.685.39-1.252 0-1.718-.67-1.718-1.234 0-.78.547-1.124 1.811-1.578 1.51-.55 2.273-1.184 2.273-2.391 0-1.285-1.018-2.409-3.152-2.409-.863 0-1.821.252-2.293.55zM281.214 397.19c-.018 0-.965.934-.965.934-.77-.644-1.615-.934-2.65-.934-1.756 0-2.763 1.081-2.763 2.315 0 1.121.733 1.87 1.75 2.391v.035c-.451.549-.757 1.15-.757 1.739 0 .994.8 2.016 2.309 2.016 1.143 0 2.005-.665 2.005-1.74 0-.866-.542-1.55-1.99-2.203v-.039c.782-.815 1.63-1.701 2.202-2.284.41.572.686 1.36.863 2.392h1.06c-.24-1.289-.623-2.307-1.294-3.033 0 0 1.603-1.589 1.613-1.589h-1.383m-3.4.81c.806 0 1.437.32 1.863.744-.528.535-1.556 1.54-2.565 2.583-.483-.276-1.152-.804-1.152-1.657 0-.95.746-1.67 1.84-1.67h.013m.243 6.954c-.756 0-1.139-.558-1.139-1.185 0-.583.306-1.044.696-1.48.95.473 1.52.922 1.52 1.608 0 .5-.306 1.057-1.068 1.057h-.01zM292.432 397.594c-.406-.2-1.27-.404-2.355-.404-2.555 0-4.445 1.468-4.445 4.173 0 2.599 1.905 4.323 4.707 4.323 1.098 0 1.818-.22 2.12-.368l-.29-.863c-.423.2-1.045.342-1.79.342-2.097 0-3.516-1.217-3.516-3.399 0-2.013 1.29-3.296 3.45-3.296.721 0 1.433.132 1.897.336zM371.03 397.594c-.412-.2-1.299-.404-2.386-.404-2.518 0-4.434 1.468-4.434 4.173 0 2.599 1.932 4.323 4.703 4.323 1.098 0 1.84-.22 2.145-.368l-.291-.863c-.436.2-1.075.342-1.813.342-2.1 0-3.498-1.217-3.498-3.399 0-2.013 1.266-3.296 3.432-3.296.713 0 1.443.132 1.92.336zM450.72 397.594c-.412-.2-1.272-.404-2.36-.404-2.543 0-4.445 1.468-4.445 4.173 0 2.599 1.918 4.323 4.713 4.323 1.1 0 1.816-.22 2.121-.368l-.293-.863c-.424.2-1.047.342-1.787.342-2.1 0-3.518-1.217-3.518-3.399 0-2.013 1.282-3.296 3.45-3.296.716 0 1.431.132 1.894.336zM411.593 398.672c.521-.317 1.29-.555 2.082-.555 1.21 0 1.902.578 1.902 1.457 0 .772-.476 1.022-1.719 1.444-1.476.502-2.379 1.17-2.379 2.37 0 1.317 1.16 2.298 2.944 2.298.9 0 1.582-.2 1.963-.415l-.32-.891c-.276.168-.87.402-1.688.402-1.248 0-1.725-.628-1.725-1.206 0-.8.565-1.191 1.823-1.658 1.513-.564 2.271-1.024 2.271-2.258 0-1.318-1.012-2.47-3.148-2.47-.877 0-1.832.26-2.307.564zM205.243 402.078l3.264 3.608h-2.216a.436.436 0 0 1-.445-.436c0-.23.183-.419.419-.432l-2.692-2.974v3.842h-1.437a.442.442 0 0 1-.45-.436c0-.238.2-.437.45-.437h.282v-7.623h1.155v3.243l.865.927 2.956-4.17h1.367zM223.669 399.53c-.235.878-.646 1.478-1.322 1.706v.037c.927.303 1.696 1.016 1.696 2.13 0 .667-.269 1.203-.714 1.564-.557.474-1.367.719-2.614.719h-2.512a.437.437 0 0 1 0-.872h.282v-7.624h1.166v3.681h1.092c1.06-.037 1.55-.475 1.815-1.638.24-1.063.438-1.793.586-2.043h1.206c-.171.335-.39 1.152-.681 2.34m-2.834 2.172h-1.184v3.012c.203.05.587.102 1.145.102 1.231 0 2.068-.438 2.068-1.527 0-.977-.781-1.587-2.029-1.587zM257.458 399.53c-.228.878-.638 1.478-1.315 1.706v.037c.93.303 1.687 1.016 1.687 2.13 0 .667-.267 1.203-.705 1.564-.556.474-1.365.719-2.597.719h-2.515a.436.436 0 0 1 0-.872h.285v-7.624h1.156v3.681h1.1c1.046-.037 1.537-.475 1.8-1.638.24-1.063.44-1.793.586-2.043h1.2c-.18.335-.388 1.152-.682 2.34m-2.812 2.172h-1.192v3.012c.198.05.593.102 1.152.102 1.22 0 2.054-.438 2.054-1.527 0-.977-.781-1.587-2.014-1.587zM328.228 399.53c-.235.878-.663 1.478-1.338 1.706v.037c.93.303 1.71 1.016 1.71 2.13 0 .667-.26 1.203-.728 1.564-.553.474-1.393.719-2.625.719h-2.502a.434.434 0 0 1-.433-.436c0-.238.195-.437.433-.437h.28v-7.623h1.15v3.681h1.1c1.044-.037 1.56-.475 1.822-1.638.248-1.063.445-1.793.59-2.043h1.216c-.17.335-.38 1.152-.675 2.34m-2.862 2.172h-1.191v3.012c.21.05.592.102 1.15.102 1.229 0 2.086-.438 2.086-1.527 0-.977-.803-1.587-2.045-1.587zM430.935 399.53c-.227.878-.643 1.478-1.34 1.706v.037c.957.303 1.709 1.016 1.709 2.13 0 .667-.266 1.203-.7 1.564-.562.474-1.392.719-2.623.719h-2.507a.432.432 0 0 1-.428-.436c0-.238.193-.437.428-.437h.29v-7.623h1.153v3.681h1.09c1.045-.037 1.535-.475 1.806-1.638.256-1.063.454-1.793.602-2.043h1.197c-.175.335-.388 1.152-.677 2.34m-2.838 2.172h-1.18v3.012c.2.05.584.102 1.14.102 1.217 0 2.08-.438 2.08-1.527 0-.977-.81-1.587-2.04-1.587zM227.324 398.12v3.055h3.476v.903h-3.476v2.692h3.687v.916h-5.152a.434.434 0 0 1-.434-.436c0-.238.195-.437.434-.437h.29v-7.623h5.067v.93zM331.372 398.12v3.055h3.469v.903h-3.469v2.692h3.676v.916h-5.12a.436.436 0 1 1 0-.873h.278v-7.623h5.037v.93zM341.962 398.12v3.055h3.478v.903h-3.478v2.692h3.695v.916h-5.156a.43.43 0 0 1-.428-.436c0-.238.192-.437.428-.437h.295v-7.623h5.064v.93zM419.915 398.12v3.055h3.482v.903h-3.482v2.692h3.695v.916h-5.148a.436.436 0 0 1 0-.873h.283v-7.623h5.068v.93zM299.244 405.686a.436.436 0 0 1 0-.872h.291v-4.027c0-1.856-.863-2.693-2.197-2.693-1.206 0-2.093.81-2.093 2.693v4.899h-1.474a.44.44 0 0 1-.44-.436c0-.238.201-.437.44-.437h.295v-3.99c0-2.643 1.393-3.633 3.22-3.633 1.964 0 3.414 1.066 3.414 3.67v4.826zM319.71 405.686c-.242 0-.467-.194-.467-.436 0-.238.225-.437.467-.437h.281v-4.026c0-1.856-.888-2.693-2.199-2.693-1.219 0-2.11.81-2.11 2.693v4.899h-1.456a.432.432 0 0 1-.43-.436c0-.238.192-.437.43-.437h.292v-3.99c0-2.643 1.376-3.633 3.235-3.633 1.963 0 3.4 1.066 3.4 3.67v4.826zM361.394 405.686a.437.437 0 0 1 0-.872h.304v-4.027c0-1.856-.877-2.693-2.197-2.693-1.19 0-2.078.81-2.078 2.693v4.899h-1.45a.44.44 0 0 1-.445-.436c0-.238.201-.437.446-.437h.285v-3.99c0-2.643 1.373-3.633 3.203-3.633 1.937 0 3.412 1.066 3.412 3.67v4.826zM303.669 398.12v7.566h-1.47a.44.44 0 0 1-.441-.436c0-.238.2-.437.441-.437h.298v-7.623h5.016v.93zM387.046 405.686a.438.438 0 0 1-.455-.436c0-.238.193-.437.455-.437h.293v-7.623h1.164v8.496zM353.65 404.66c-.797.675-1.958 1.022-3.59 1.022l-2.704.004a.434.434 0 0 1-.439-.436c0-.238.193-.436.44-.436h.283v-7.51c.586-.085 1.252-.113 2.072-.113 1.713 0 3.06.436 3.926 1.208.81.78 1.26 1.884 1.26 3.244 0 1.357-.45 2.34-1.249 3.017m-3.716-6.594c-.438 0-.864 0-1.15.051v6.604c.3.063.75.111 1.33.111 2.406 0 3.6-1.217 3.587-3.224 0-2.248-1.336-3.555-3.767-3.542zM236.364 405.686h-1.783a.435.435 0 0 1-.435-.436c0-.238.195-.437.435-.437h.055l-2.729-7.623h1.197l.93 2.68h3.196l.954-2.68h1.235l-3.055 8.496m-2.092-4.962s1.354 3.861 1.315 3.861h.039l1.365-3.861h-2.719zM376.323 405.686h-1.781a.437.437 0 0 1-.441-.436.44.44 0 0 1 .441-.437h.053l-2.727-7.623h1.192l.925 2.68h3.201l.954-2.68h1.265l-3.082 8.496m-2.094-4.962s1.385 3.861 1.344 3.861h.041l1.33-3.861h-2.715zM247.83 405.686h-1.771a.438.438 0 0 1-.442-.436c0-.238.198-.437.442-.437h.057l-2.742-7.623h1.191l.939 2.68h3.186l.963-2.68h1.24l-3.064 8.496m-2.082-4.962s1.367 3.861 1.326 3.861h.041l1.338-3.861h-2.705zM437.94 405.686a.436.436 0 1 1 0-.873h.303l-1.224-3.329c-.41-1.101-.774-2.165-1.02-3.158h-.033c-.246.993-.58 2.03-.951 3.17l-1.416 4.19h-1.245a.435.435 0 1 1 0-.873h.282l2.66-7.623h1.271l3.221 8.496zM441.052 405.686a.435.435 0 0 1-.436-.436c0-.238.196-.437.436-.437h.285v-7.623h1.168v8.496zM453.593 398.12v3.055h3.498v.903h-3.498v2.692h3.713v.916h-5.182a.435.435 0 0 1 0-.873h.285v-7.623h4.897v.93zM404.9 405.686a.434.434 0 0 1-.438-.436c0-.238.193-.437.437-.437h.28v-5.841l-4.213 6.714h-1.569a.434.434 0 0 1-.437-.436c0-.238.193-.437.437-.437h.282v-7.623h1.068v7.14l4.432-7.14h1.068v8.496z" style="fill:#44403e;fill-opacity:1;fill-rule:nonzero;stroke:none" transform="matrix(4.55442 0 0 -4.55442 -643.53 2008.972)"/></svg>