<svg xmlns="http://www.w3.org/2000/svg" xmlns:xlink="http://www.w3.org/1999/xlink" viewBox="0 0 463.01 82.72"><defs><style>.cls-1{fill:#3772a9;}.cls-2{fill:url(#무제_그라디언트_2);}.cls-3{fill:#221714;}</style><linearGradient id="무제_그라디언트_2" x1="50.5" y1="76.96" x2="103.67" y2="13.59" gradientUnits="userSpaceOnUse"><stop offset="0" stop-color="#f1e95c"/><stop offset="0.23" stop-color="#eddb66"/><stop offset="0.26" stop-color="#ecd662"/><stop offset="0.42" stop-color="#e5bb4c"/><stop offset="0.52" stop-color="#e3b144"/><stop offset="1" stop-color="#f7e686"/></linearGradient></defs><g id="레이어_2" data-name="레이어 2"><g id="레이어_1-2" data-name="레이어 1"><circle class="cls-1" cx="41.36" cy="41.36" r="41.36"/><path class="cls-2" d="M104.45,67.54a41.36,41.36,0,1,1,9.34-26.18v34Z"/><path class="cls-3" d="M159,10.09H138.43V6.19h7.73V2.48h5V6.19H159ZM148.69,24.77c-5,0-8.55-2.72-8.55-6.73s3.56-6.7,8.55-6.7,8.55,2.76,8.55,6.7S153.69,24.77,148.69,24.77Zm-.3,8h18.73v4H143.39V26.67h5Zm.3-11.81c2.2,0,3.79-1,3.79-2.95s-1.59-2.92-3.79-2.92-3.78,1-3.78,2.92S146.46,21,148.69,21Zm21.8-7.83v4.12h-4.61V28.6h-5V2.52h5V13.16Z"/><path class="cls-3" d="M193,20v4.91h9.69V37.38h-5V28.86H177.94V24.92H188V20H174.76V16h22.18a38.11,38.11,0,0,0,.76-8h-19V4h24V6.8a47.5,47.5,0,0,1-.68,9.23h4.39v4Z"/><path class="cls-3" d="M242.58,20.5v3.9H211.05V20.5H224.3V18.34H215V3.43h24V7.21H220V9h18.24v3.63H220v1.9h19.3v3.78H229.3V20.5Zm-3.71,11.16c0,3.71-4.43,5.72-12.11,5.72s-12.07-2-12.07-5.72S219.12,26,226.76,26,238.87,27.91,238.87,31.66Zm-5,0c0-1.44-2.24-2-7.08-2s-7,.6-7,2,2.24,2.08,7,2.08S233.84,33.1,233.84,31.66Z"/><path class="cls-3" d="M265.36,22.84H248.9v-18h4.95v5.3h6.63V4.87h4.88v6.92h6.21V2.56h5v25.7h-5V15.8h-6.21Zm12,10v4H253.55v-11h5v7ZM260.48,14h-6.63v4.92h6.63Z"/><path class="cls-3" d="M312.89,2.52V23.15h-5V18.76h-7.57a9.5,9.5,0,0,1-7,2.87c-5.14,0-9.16-3.63-9.16-8.66s4-8.63,9.16-8.63a9.49,9.49,0,0,1,7,2.87h7.54V2.52ZM297.83,13a4.45,4.45,0,0,0-8.9,0,4.45,4.45,0,0,0,8.9,0Zm-8.67,11.77h23.73V37.41h-5V28.67H289.16Zm18.74-10V11.19h-5.53a9,9,0,0,1,.19,1.78,10.11,10.11,0,0,1-.19,1.81Z"/><path class="cls-3" d="M351.6,25.76H338.24V37.45h-5V25.76H320.11v-4H351.6Zm-30-9.88c7.11-.87,10.82-4.28,11.31-7.61h-10v-4h25.85v4h-9.88c.49,3.33,4.16,6.74,11.24,7.61l-1.78,3.9c-6.09-.84-10.37-3.45-12.45-7-2.08,3.55-6.36,6.16-12.45,7Z"/><path class="cls-3" d="M375.33,21.63a13.28,13.28,0,0,1-8.14-6.85,13.85,13.85,0,0,1-8.48,7.42l-2.46-3.94c5.83-1.85,8.33-6.39,8.33-10.82V4.11h5.07V7.44c0,4.35,2.46,8.51,8.1,10.26Zm-13.74,3.18h23.77v12.6h-5V28.82H361.59ZM385.36,2.52V23.3h-5V2.52Z"/><path class="cls-3" d="M406.58,27.27c2.84-.15,5.68-.34,8.41-.72l.37,3.6c-7.6,1.4-15.67,1.44-21.83,1.44l-.61-4.05c2.61,0,5.56,0,8.67-.08V24.51c-3.75-.72-6.17-3.07-6.17-6.29,0-3.93,3.55-6.58,8.66-6.58s8.64,2.65,8.64,6.58c0,3.22-2.43,5.57-6.14,6.29Zm7.95-17H393.6V6.38h8V2.63h5V6.38h7.95ZM404.08,21c2.35,0,3.9-1,3.9-2.77s-1.55-2.79-3.9-2.79-3.89,1-3.89,2.79S401.78,21,404.08,21ZM421.8,2.52V37.38h-5V2.52Z"/><path class="cls-3" d="M441.89,10.28c0,6.28,2.46,12.6,8.06,15.36l-3,3.94c-3.63-1.85-6.09-5.22-7.53-9.39-1.52,4.43-4.13,8.1-8.06,10l-3-4c5.87-2.76,8.51-9.42,8.51-15.89V5.21h5Zm19.53,9.8h-5.07v17.3h-5V2.52h5v13.4h5.07Z"/><path class="cls-3" d="M153.23,74.69h-2.55l-6.09-8.21L142.83,68v6.67h-2.17V57.5h2.17V66c.48-.54,1-1.09,1.47-1.63s1-1.1,1.49-1.64l4.65-5.2H153L146.15,65Z"/><path class="cls-3" d="M170.57,66.07a11.2,11.2,0,0,1-.9,4.66A7,7,0,0,1,167,73.82a8.06,8.06,0,0,1-4.35,1.11,8.19,8.19,0,0,1-4.44-1.11,6.74,6.74,0,0,1-2.64-3.1,11.65,11.65,0,0,1-.87-4.67,11.47,11.47,0,0,1,.87-4.62,6.77,6.77,0,0,1,2.64-3.09,8.24,8.24,0,0,1,4.46-1.11,8.08,8.08,0,0,1,4.34,1.1,6.91,6.91,0,0,1,2.66,3.08A11.2,11.2,0,0,1,170.57,66.07Zm-13.58,0a8.53,8.53,0,0,0,1.37,5.12,5,5,0,0,0,4.29,1.86,4.93,4.93,0,0,0,4.27-1.86,8.53,8.53,0,0,0,1.36-5.12A8.51,8.51,0,0,0,166.94,61a4.93,4.93,0,0,0-4.27-1.85A5,5,0,0,0,158.36,61,8.37,8.37,0,0,0,157,66.07Z"/><path class="cls-3" d="M179.6,57.5a7.55,7.55,0,0,1,4.73,1.21,4.41,4.41,0,0,1,1.53,3.67,4.76,4.76,0,0,1-.5,2.29,4.4,4.4,0,0,1-1.29,1.47,6.12,6.12,0,0,1-1.65.84l4.72,7.71h-2.53l-4.17-7.11H177v7.11h-2.16V57.5Zm-.12,1.87H177v6.39h2.58a4.59,4.59,0,0,0,3.06-.84,3,3,0,0,0,1-2.44,2.72,2.72,0,0,0-1-2.39A5.44,5.44,0,0,0,179.48,59.37Z"/><path class="cls-3" d="M199.92,74.69h-9.6V57.5h9.6v1.9h-7.44v5.37h7v1.88h-7v6.14h7.44Z"/><path class="cls-3" d="M215,74.69l-2.08-5.32h-6.81L204,74.69h-2.19l6.72-17.26h2l6.7,17.26Zm-2.72-7.25-1.93-5.2c-.05-.13-.13-.36-.24-.7s-.22-.68-.33-1-.19-.63-.25-.83c-.13.5-.26,1-.4,1.46s-.25.85-.35,1.12l-1.95,5.2Z"/><path class="cls-3" d="M232.24,74.69h-2.16V59.4h-5.37V57.5h12.88v1.9h-5.35Z"/><path class="cls-3" d="M245.2,61.54a7.1,7.1,0,0,1,.77,0c.27,0,.52.06.75.1l-.27,2a6,6,0,0,0-.7-.12,6.06,6.06,0,0,0-.7-.05,3.43,3.43,0,0,0-1.85.54,3.94,3.94,0,0,0-1.39,1.52,4.84,4.84,0,0,0-.51,2.27v6.89h-2.12V61.78h1.73l.24,2.36h.1a6.18,6.18,0,0,1,1.6-1.83A3.77,3.77,0,0,1,245.2,61.54Z"/><path class="cls-3" d="M254,61.56a5.07,5.07,0,0,1,3.5,1,4.29,4.29,0,0,1,1.13,3.3v8.79H257.1l-.41-1.83h-.1a5.78,5.78,0,0,1-1.78,1.56,5.41,5.41,0,0,1-2.56.51,4.49,4.49,0,0,1-2.91-.93,3.48,3.48,0,0,1-1.15-2.9,3.4,3.4,0,0,1,1.51-3A8.83,8.83,0,0,1,254.37,67l2.2-.07v-.77a2.4,2.4,0,0,0-2.68-2.87,5.85,5.85,0,0,0-1.92.31,14.17,14.17,0,0,0-1.71.68l-.65-1.59a9.94,9.94,0,0,1,2-.78A8.69,8.69,0,0,1,254,61.56Zm2.53,6.82-1.9.07a6.48,6.48,0,0,0-3.34.77,2.24,2.24,0,0,0-.92,1.91,1.85,1.85,0,0,0,.66,1.58,2.71,2.71,0,0,0,1.7.51,4.16,4.16,0,0,0,2.71-.9,3.39,3.39,0,0,0,1.09-2.78Z"/><path class="cls-3" d="M269.33,61.54A4.11,4.11,0,0,1,274,66.28v8.41h-2.1V66.43q0-3.11-2.89-3.11a3.31,3.31,0,0,0-3,1.21,6.1,6.1,0,0,0-.82,3.46v6.7h-2.12V61.78h1.71l.32,1.76h.12A3.8,3.8,0,0,1,267,62,5.84,5.84,0,0,1,269.33,61.54Z"/><path class="cls-3" d="M286.88,71.13a3.23,3.23,0,0,1-1.4,2.84,6.51,6.51,0,0,1-3.75,1,10.54,10.54,0,0,1-2.33-.22,6.82,6.82,0,0,1-1.72-.6V72.19a13,13,0,0,0,1.87.71,8,8,0,0,0,2.23.32,4,4,0,0,0,2.33-.52,1.61,1.61,0,0,0,.73-1.38,1.57,1.57,0,0,0-.27-.87,2.81,2.81,0,0,0-.95-.77,17.17,17.17,0,0,0-2-.87,19.41,19.41,0,0,1-2.14-1,4,4,0,0,1-1.37-1.16,2.9,2.9,0,0,1-.48-1.73A2.87,2.87,0,0,1,279,62.43a6.28,6.28,0,0,1,3.51-.89,9.63,9.63,0,0,1,2.2.24,11.37,11.37,0,0,1,1.92.63l-.73,1.68a14.28,14.28,0,0,0-1.71-.57,6.57,6.57,0,0,0-1.83-.25,3.8,3.8,0,0,0-2,.43,1.28,1.28,0,0,0-.69,1.14,1.42,1.42,0,0,0,.31.92,3.38,3.38,0,0,0,1.05.72c.49.24,1.14.51,2,.82a14,14,0,0,1,2.1.94,3.53,3.53,0,0,1,1.32,1.17A3,3,0,0,1,286.88,71.13Z"/><path class="cls-3" d="M292.61,74.69h-2.12V56.39h2.12Z"/><path class="cls-3" d="M302.08,61.56a5.05,5.05,0,0,1,3.49,1,4.29,4.29,0,0,1,1.13,3.3v8.79h-1.54l-.41-1.83h-.1a5.67,5.67,0,0,1-1.78,1.56,5.36,5.36,0,0,1-2.55.51,4.49,4.49,0,0,1-2.91-.93,3.45,3.45,0,0,1-1.16-2.9,3.41,3.41,0,0,1,1.52-3A8.83,8.83,0,0,1,302.44,67l2.19-.07v-.77A2.4,2.4,0,0,0,302,63.27a5.87,5.87,0,0,0-1.93.31,14.86,14.86,0,0,0-1.71.68l-.65-1.59a10.18,10.18,0,0,1,2-.78A8.71,8.71,0,0,1,302.08,61.56Zm2.53,6.82-1.91.07a6.47,6.47,0,0,0-3.33.77,2.23,2.23,0,0,0-.93,1.91,1.85,1.85,0,0,0,.66,1.58,2.73,2.73,0,0,0,1.7.51,4.12,4.12,0,0,0,2.71-.9,3.4,3.4,0,0,0,1.1-2.78Z"/><path class="cls-3" d="M315.49,73.2a6.83,6.83,0,0,0,1-.08,3.55,3.55,0,0,0,.82-.19v1.62a3.73,3.73,0,0,1-1,.27,7.33,7.33,0,0,1-1.2.11,4.94,4.94,0,0,1-1.87-.35,2.88,2.88,0,0,1-1.38-1.21,4.63,4.63,0,0,1-.53-2.44V63.42h-1.83v-1l1.85-.85.85-2.74h1.25v3h3.73v1.64h-3.73v7.46a2.38,2.38,0,0,0,.56,1.75A2,2,0,0,0,315.49,73.2Z"/><path class="cls-3" d="M321.44,56.94a1.25,1.25,0,0,1,.85.33,1.59,1.59,0,0,1,0,2,1.31,1.31,0,0,1-1.74,0,1.59,1.59,0,0,1,0-2A1.26,1.26,0,0,1,321.44,56.94Zm1,4.84V74.69h-2.12V61.78Z"/><path class="cls-3" d="M338.27,68.21a7,7,0,0,1-1.62,5,5.72,5.72,0,0,1-4.4,1.76,5.94,5.94,0,0,1-3.05-.78,5.49,5.49,0,0,1-2.1-2.29,7.84,7.84,0,0,1-.77-3.65,7,7,0,0,1,1.6-4.94,5.7,5.7,0,0,1,4.39-1.73,6.06,6.06,0,0,1,3.09.78,5.44,5.44,0,0,1,2.1,2.27A7.81,7.81,0,0,1,338.27,68.21Zm-9.75,0a6.44,6.44,0,0,0,.9,3.63,3.76,3.76,0,0,0,5.74,0,6.35,6.35,0,0,0,.92-3.63,6.17,6.17,0,0,0-.92-3.59,3.29,3.29,0,0,0-2.88-1.3,3.24,3.24,0,0,0-2.87,1.3A6.25,6.25,0,0,0,328.52,68.21Z"/><path class="cls-3" d="M348.31,61.54a4.87,4.87,0,0,1,3.49,1.13A4.81,4.81,0,0,1,353,66.28v8.41h-2.09V66.43q0-3.11-2.89-3.11a3.3,3.3,0,0,0-3,1.21,6.1,6.1,0,0,0-.82,3.46v6.7H342.1V61.78h1.71l.31,1.76h.12A3.88,3.88,0,0,1,346,62,5.76,5.76,0,0,1,348.31,61.54Z"/><path class="cls-3" d="M365.87,71.13a3.23,3.23,0,0,1-1.4,2.84,6.52,6.52,0,0,1-3.76,1,10.44,10.44,0,0,1-2.32-.22,6.82,6.82,0,0,1-1.72-.6V72.19a12.36,12.36,0,0,0,1.86.71,8.12,8.12,0,0,0,2.23.32,4.07,4.07,0,0,0,2.34-.52,1.61,1.61,0,0,0,.72-1.38,1.56,1.56,0,0,0-.26-.87,2.86,2.86,0,0,0-1-.77,17.69,17.69,0,0,0-2-.87,18.59,18.59,0,0,1-2.14-1,3.79,3.79,0,0,1-1.37-1.16,2.83,2.83,0,0,1-.48-1.73A2.87,2.87,0,0,1,358,62.43a6.24,6.24,0,0,1,3.5-.89,9.72,9.72,0,0,1,2.21.24,11,11,0,0,1,1.91.63l-.72,1.68a14.9,14.9,0,0,0-1.71-.57,6.62,6.62,0,0,0-1.83-.25,3.84,3.84,0,0,0-2,.43,1.29,1.29,0,0,0-.68,1.14,1.37,1.37,0,0,0,.31.92,3.38,3.38,0,0,0,1,.72c.49.24,1.14.51,2,.82a13.43,13.43,0,0,1,2.09.94,3.64,3.64,0,0,1,1.33,1.17A3.06,3.06,0,0,1,365.87,71.13Z"/><path class="cls-3" d="M383.88,59.16A5.45,5.45,0,0,0,379.52,61a7.56,7.56,0,0,0-1.59,5.08,7.91,7.91,0,0,0,1.48,5.07A5.32,5.32,0,0,0,383.86,73a12,12,0,0,0,2.11-.19,19.44,19.44,0,0,0,2-.49v1.88a10.33,10.33,0,0,1-2,.53,15.58,15.58,0,0,1-2.45.17,8.22,8.22,0,0,1-4.38-1.08,6.76,6.76,0,0,1-2.64-3.08,11.73,11.73,0,0,1-.88-4.7,10.6,10.6,0,0,1,.95-4.59,7.15,7.15,0,0,1,2.81-3.1,8.54,8.54,0,0,1,4.5-1.13,10.55,10.55,0,0,1,4.75,1l-.87,1.84a13.42,13.42,0,0,0-1.77-.65A7.22,7.22,0,0,0,383.88,59.16Z"/><path class="cls-3" d="M403.14,68.21a7,7,0,0,1-1.62,5,5.72,5.72,0,0,1-4.4,1.76,5.9,5.9,0,0,1-3-.78A5.52,5.52,0,0,1,392,71.86a8,8,0,0,1-.77-3.65,7,7,0,0,1,1.6-4.94,5.7,5.7,0,0,1,4.39-1.73,6.06,6.06,0,0,1,3.09.78,5.37,5.37,0,0,1,2.1,2.27A7.81,7.81,0,0,1,403.14,68.21Zm-9.75,0a6.44,6.44,0,0,0,.9,3.63,3.77,3.77,0,0,0,5.75,0,6.43,6.43,0,0,0,.91-3.63,6.25,6.25,0,0,0-.91-3.59,3.31,3.31,0,0,0-2.89-1.3,3.24,3.24,0,0,0-2.87,1.3A6.33,6.33,0,0,0,393.39,68.21Z"/><path class="cls-3" d="M406.66,73.39a1.54,1.54,0,0,1,.43-1.25,1.59,1.59,0,0,1,1-.36,1.68,1.68,0,0,1,1.06.36,1.51,1.51,0,0,1,.45,1.25,1.56,1.56,0,0,1-.45,1.25,1.6,1.6,0,0,1-1.06.39,1.51,1.51,0,0,1-1-.39A1.59,1.59,0,0,1,406.66,73.39Z"/><path class="cls-3" d="M416.31,71.9l.17.26a29.06,29.06,0,0,1-.91,2.81c-.39,1-.78,2-1.16,2.83h-1.56c.22-.92.45-1.92.68-3s.41-2.06.52-2.89Z"/><path class="cls-3" d="M423.06,74.69V57.5h2.16V72.76h7.52v1.93Z"/><path class="cls-3" d="M440.18,73.2a6.83,6.83,0,0,0,1-.08,3.43,3.43,0,0,0,.82-.19v1.62a3.73,3.73,0,0,1-1,.27,7.14,7.14,0,0,1-1.2.11,4.94,4.94,0,0,1-1.87-.35,2.88,2.88,0,0,1-1.38-1.21,4.73,4.73,0,0,1-.53-2.44V63.42h-1.83v-1l1.85-.85.85-2.74h1.25v3h3.73v1.64h-3.73v7.46a2.42,2.42,0,0,0,.56,1.75A2,2,0,0,0,440.18,73.2Z"/><path class="cls-3" d="M449.62,74.93a4.87,4.87,0,0,1-3.86-1.67,7.5,7.5,0,0,1-1.44-5,7.54,7.54,0,0,1,1.46-5,4.83,4.83,0,0,1,3.86-1.7,4.94,4.94,0,0,1,2.45.55,5.12,5.12,0,0,1,1.55,1.36h.14q0-.33-.09-.93c0-.41-.05-.74-.05-1V56.39h2.12v18.3h-1.71L453.74,73h-.1a5.06,5.06,0,0,1-1.54,1.39A4.74,4.74,0,0,1,449.62,74.93Zm.34-1.76a3.33,3.33,0,0,0,2.87-1.12,5.59,5.59,0,0,0,.83-3.38v-.39a7.08,7.08,0,0,0-.79-3.69,3.17,3.17,0,0,0-2.94-1.29,2.82,2.82,0,0,0-2.56,1.36,6.71,6.71,0,0,0-.86,3.65,6.35,6.35,0,0,0,.86,3.59A2.9,2.9,0,0,0,450,73.17Z"/><path class="cls-3" d="M460,73.39a1.57,1.57,0,0,1,.43-1.25,1.59,1.59,0,0,1,1-.36,1.68,1.68,0,0,1,1.06.36,1.51,1.51,0,0,1,.46,1.25,1.57,1.57,0,0,1-.46,1.25,1.6,1.6,0,0,1-1.06.39,1.51,1.51,0,0,1-1-.39A1.63,1.63,0,0,1,460,73.39Z"/></g></g></svg>