<svg xmlns="http://www.w3.org/2000/svg" viewBox="0 0 325.02 58.07"><defs><style>.cls-1{fill:#b9b9b9;}.cls-2{fill:#ebebeb;}.cls-3{fill:#fff;}</style></defs><g id="레이어_2" data-name="레이어 2"><g id="레이어_1-2" data-name="레이어 1"><circle class="cls-1" cx="29.03" cy="29.04" r="29.03"/><path class="cls-2" d="M73.32,47.41A29,29,0,1,1,79.88,29V52.89Z"/><path class="cls-3" d="M111.58,7.08H97.18V4.35h5.42V1.74h3.53V4.35h5.48Zm-7.2,10.31c-3.51,0-6-1.91-6-4.73s2.5-4.7,6-4.7,6,1.94,6,4.7S107.89,17.39,104.38,17.39ZM104.17,23h13.15v2.79H100.66V18.72h3.51Zm.21-8.29c1.54,0,2.66-.71,2.66-2.07s-1.12-2-2.66-2-2.66.71-2.66,2S102.81,14.73,104.38,14.73Zm15.3-5.5v2.9h-3.24v7.94h-3.51V1.77h3.51V9.23Z"/><path class="cls-3" d="M135.48,14V17.5h6.81v8.74h-3.54v-6H124.91V17.5H132V14h-9.3V11.25h15.57a27.14,27.14,0,0,0,.53-5.63H125.42V2.81h16.81v2a33.8,33.8,0,0,1-.47,6.48h3.08V14Z"/><path class="cls-3" d="M170.29,14.39v2.74H148.16V14.39h9.29V12.87h-6.53V2.41h16.84V5.06H154.4V6.34h12.81V8.89H154.4v1.33H168v2.65h-7v1.52Zm-2.61,7.84c0,2.6-3.11,4-8.5,4s-8.47-1.41-8.47-4,3.11-4,8.47-4S167.68,19.59,167.68,22.23Zm-3.53,0c0-1-1.57-1.44-5-1.44s-4.94.43-4.94,1.44,1.57,1.46,4.94,1.46S164.15,23.24,164.15,22.23Z"/><path class="cls-3" d="M186.28,16H174.72V3.39h3.48V7.11h4.65V3.42h3.43V8.28h4.35V1.79h3.51V19.84h-3.51V11.09h-4.35Zm8.39,7v2.79H178V18.08h3.51V23ZM182.85,9.79H178.2v3.46h4.65Z"/><path class="cls-3" d="M219.64,1.77V16.25h-3.5V13.17h-5.32a6.65,6.65,0,0,1-4.89,2,6.08,6.08,0,1,1,0-12.14,6.71,6.71,0,0,1,4.92,2h5.29V1.77ZM209.07,9.1a3.12,3.12,0,0,0-6.24,0,3.12,3.12,0,0,0,6.24,0ZM203,17.36h16.66v8.9h-3.5V20.13H203Zm13.16-7V7.85h-3.88a6.22,6.22,0,0,1,.13,1.25,7,7,0,0,1-.13,1.28Z"/><path class="cls-3" d="M246.82,18.08h-9.38v8.21h-3.51V18.08h-9.22V15.29h22.11Zm-21.07-6.93c5-.61,7.6-3,7.94-5.34h-7V3H244.8V5.81h-6.94c.35,2.34,2.93,4.73,7.89,5.34l-1.24,2.73c-4.28-.58-7.28-2.41-8.75-4.91-1.45,2.5-4.46,4.33-8.74,4.91Z"/><path class="cls-3" d="M263.47,15.18a9.32,9.32,0,0,1-5.71-4.8,9.72,9.72,0,0,1-5.95,5.2l-1.73-2.76a7.83,7.83,0,0,0,5.85-7.6V2.88h3.56V5.22c0,3.06,1.73,6,5.68,7.2Zm-9.64,2.24h16.68v8.84H267v-6H253.83ZM270.51,1.77V16.35H267V1.77Z"/><path class="cls-3" d="M285.41,19.14c2-.1,4-.23,5.9-.5l.27,2.52a85.32,85.32,0,0,1-15.33,1l-.43-2.84c1.84,0,3.91,0,6.09,0V17.21c-2.63-.51-4.33-2.16-4.33-4.42,0-2.76,2.49-4.62,6.08-4.62s6.06,1.86,6.06,4.62c0,2.26-1.7,3.91-4.31,4.42ZM291,7.22H276.3V4.48h5.61V1.85h3.5V4.48H291Zm-7.33,7.51c1.65,0,2.74-.69,2.74-1.94s-1.09-2-2.74-2-2.74.69-2.74,2S282,14.73,283.66,14.73Zm12.43-13V26.24h-3.5V1.77Z"/><path class="cls-3" d="M310.2,7.22c0,4.41,1.72,8.84,5.66,10.78l-2.13,2.76a11.13,11.13,0,0,1-5.29-6.58,11.67,11.67,0,0,1-5.66,7l-2.1-2.85c4.12-1.94,6-6.61,6-11.15V3.65h3.54Zm13.71,6.88h-3.56V26.24h-3.51V1.77h3.51v9.4h3.56Z"/><path class="cls-3" d="M107.57,52.43h-1.8l-4.27-5.76-1.24,1.08v4.68H98.74V40.36h1.52v6c.34-.38.68-.77,1-1.15l1-1.15,3.27-3.65h1.77l-4.78,5.26Z"/><path class="cls-3" d="M119.74,46.38a7.73,7.73,0,0,1-.64,3.27,4.84,4.84,0,0,1-1.87,2.17,5.64,5.64,0,0,1-3,.78,5.73,5.73,0,0,1-3.12-.78,4.66,4.66,0,0,1-1.85-2.18,8.1,8.1,0,0,1-.61-3.28,8,8,0,0,1,.61-3.24A4.73,4.73,0,0,1,111.06,41a5.76,5.76,0,0,1,3.13-.78,5.71,5.71,0,0,1,3,.77,4.88,4.88,0,0,1,1.86,2.17A7.73,7.73,0,0,1,119.74,46.38Zm-9.54,0a5.89,5.89,0,0,0,1,3.59,4.1,4.1,0,0,0,6,0,6,6,0,0,0,.95-3.59,6,6,0,0,0-.94-3.58,3.48,3.48,0,0,0-3-1.29,3.52,3.52,0,0,0-3,1.29A5.83,5.83,0,0,0,110.2,46.38Z"/><path class="cls-3" d="M126.07,40.36a5.4,5.4,0,0,1,3.33.85,3.11,3.11,0,0,1,1.07,2.58,3.37,3.37,0,0,1-.35,1.61,3,3,0,0,1-.91,1,4.1,4.1,0,0,1-1.16.59l3.32,5.41h-1.78l-2.92-5h-2.4v5h-1.52V40.36ZM126,41.68h-1.72v4.48h1.8a3.29,3.29,0,0,0,2.15-.58,2.15,2.15,0,0,0,.68-1.72,1.91,1.91,0,0,0-.71-1.68A3.89,3.89,0,0,0,126,41.68Z"/><path class="cls-3" d="M140.34,52.43H133.6V40.36h6.74V41.7h-5.22v3.77H140v1.31h-4.92V51.1h5.22Z"/><path class="cls-3" d="M150.91,52.43l-1.45-3.73h-4.79l-1.44,3.73H141.7l4.71-12.12h1.37l4.7,12.12ZM149,47.34l-1.35-3.65c0-.09-.09-.25-.17-.49s-.16-.48-.23-.74-.13-.44-.18-.58c-.09.35-.18.69-.28,1s-.17.59-.24.78l-1.37,3.65Z"/><path class="cls-3" d="M163,52.43h-1.52V41.7h-3.77V40.36h9V41.7H163Z"/><path class="cls-3" d="M172.12,43.2l.55,0a3.85,3.85,0,0,1,.52.07L173,44.67l-.49-.08a4.6,4.6,0,0,0-.49,0,2.45,2.45,0,0,0-1.3.38,2.72,2.72,0,0,0-1,1.07,3.37,3.37,0,0,0-.36,1.6v4.83H167.9V43.37h1.21l.17,1.66h.07a4.31,4.31,0,0,1,1.12-1.29A2.64,2.64,0,0,1,172.12,43.2Z"/><path class="cls-3" d="M178.31,43.22a3.5,3.5,0,0,1,2.45.73,3,3,0,0,1,.8,2.31v6.17h-1.08l-.29-1.28h-.07a4,4,0,0,1-1.25,1.09,3.76,3.76,0,0,1-1.79.36A3.2,3.2,0,0,1,175,52a2.45,2.45,0,0,1-.81-2,2.41,2.41,0,0,1,1.07-2.09,6.22,6.22,0,0,1,3.28-.8L180.1,47v-.54a2,2,0,0,0-.49-1.57,2,2,0,0,0-1.38-.44,4.29,4.29,0,0,0-1.35.21,9.38,9.38,0,0,0-1.2.48L175.22,44a6.82,6.82,0,0,1,1.4-.54A6,6,0,0,1,178.31,43.22ZM180.09,48l-1.34,0a4.62,4.62,0,0,0-2.34.54,1.57,1.57,0,0,0-.65,1.34,1.32,1.32,0,0,0,.46,1.11,1.92,1.92,0,0,0,1.2.36,2.92,2.92,0,0,0,1.9-.63,2.42,2.42,0,0,0,.77-2Z"/><path class="cls-3" d="M189.06,43.2a3.45,3.45,0,0,1,2.45.79,3.38,3.38,0,0,1,.83,2.54v5.9h-1.47v-5.8c0-1.45-.67-2.18-2-2.18a2.33,2.33,0,0,0-2.08.85,4.32,4.32,0,0,0-.57,2.43v4.7H184.7V43.37h1.2l.22,1.23h.08a2.71,2.71,0,0,1,1.22-1.05A4,4,0,0,1,189.06,43.2Z"/><path class="cls-3" d="M201.39,49.93a2.25,2.25,0,0,1-1,2,4.55,4.55,0,0,1-2.63.68,7.67,7.67,0,0,1-1.63-.15,5.36,5.36,0,0,1-1.21-.42V50.67a8,8,0,0,0,1.31.5,5.51,5.51,0,0,0,1.56.23,2.89,2.89,0,0,0,1.64-.36,1.15,1.15,0,0,0,.51-1,1,1,0,0,0-.19-.61,2.15,2.15,0,0,0-.66-.54,12.85,12.85,0,0,0-1.38-.6,13,13,0,0,1-1.51-.68,2.78,2.78,0,0,1-1-.81,2,2,0,0,1-.34-1.22,2,2,0,0,1,.94-1.77,4.34,4.34,0,0,1,2.46-.63,6.79,6.79,0,0,1,1.54.17,7.91,7.91,0,0,1,1.35.44L200.69,45a8.89,8.89,0,0,0-1.2-.4,4.59,4.59,0,0,0-1.28-.17,2.78,2.78,0,0,0-1.4.29,1,1,0,0,0-.26,1.45,2.35,2.35,0,0,0,.74.51c.34.16.8.36,1.37.57a9.38,9.38,0,0,1,1.47.66,2.6,2.6,0,0,1,.93.82A2.1,2.1,0,0,1,201.39,49.93Z"/><path class="cls-3" d="M205.41,52.43h-1.49V39.58h1.49Z"/><path class="cls-3" d="M212.05,43.22a3.5,3.5,0,0,1,2.45.73,3,3,0,0,1,.8,2.31v6.17h-1.08l-.29-1.28h-.07a4,4,0,0,1-1.25,1.09,3.76,3.76,0,0,1-1.79.36,3.2,3.2,0,0,1-2-.65,2.45,2.45,0,0,1-.81-2A2.41,2.41,0,0,1,209,47.82a6.22,6.22,0,0,1,3.28-.8l1.53-.05v-.54a2,2,0,0,0-.49-1.57,2,2,0,0,0-1.38-.44,4.33,4.33,0,0,0-1.35.21,9.38,9.38,0,0,0-1.2.48L209,44a6.82,6.82,0,0,1,1.4-.54A6,6,0,0,1,212.05,43.22ZM213.83,48l-1.34,0a4.65,4.65,0,0,0-2.34.54,1.57,1.57,0,0,0-.65,1.34A1.32,1.32,0,0,0,210,51a1.92,1.92,0,0,0,1.2.36,2.92,2.92,0,0,0,1.9-.63,2.42,2.42,0,0,0,.77-2Z"/><path class="cls-3" d="M221.47,51.38a5.6,5.6,0,0,0,.69-.05,3,3,0,0,0,.58-.13v1.13a2.57,2.57,0,0,1-.68.19,5,5,0,0,1-.85.08,3.51,3.51,0,0,1-1.31-.24,2.06,2.06,0,0,1-1-.86,3.24,3.24,0,0,1-.37-1.71V44.52h-1.28v-.71l1.3-.59.59-1.93h.88v2.08h2.62v1.15h-2.62v5.24a1.67,1.67,0,0,0,.4,1.23A1.38,1.38,0,0,0,221.47,51.38Z"/><path class="cls-3" d="M225.64,40a1,1,0,0,1,0,1.9,1,1,0,1,1,0-1.9Zm.73,3.4v9.06h-1.49V43.37Z"/><path class="cls-3" d="M237.46,47.88a4.93,4.93,0,0,1-1.14,3.48,4,4,0,0,1-3.09,1.24,4.07,4.07,0,0,1-2.13-.55,3.8,3.8,0,0,1-1.48-1.61,5.53,5.53,0,0,1-.55-2.56,4.9,4.9,0,0,1,1.13-3.46,4,4,0,0,1,3.08-1.22,4.19,4.19,0,0,1,2.17.55,3.86,3.86,0,0,1,1.48,1.59A5.58,5.58,0,0,1,237.46,47.88Zm-6.85,0a4.46,4.46,0,0,0,.64,2.55,2.65,2.65,0,0,0,4,0,4.46,4.46,0,0,0,.64-2.55,4.26,4.26,0,0,0-.64-2.51,2.31,2.31,0,0,0-2-.92,2.26,2.26,0,0,0-2,.92A4.33,4.33,0,0,0,230.61,47.88Z"/><path class="cls-3" d="M244.51,43.2a2.89,2.89,0,0,1,3.28,3.33v5.9h-1.47v-5.8c0-1.45-.68-2.18-2-2.18a2.32,2.32,0,0,0-2.08.85,4.32,4.32,0,0,0-.58,2.43v4.7h-1.48V43.37h1.2l.22,1.23h.08a2.66,2.66,0,0,1,1.22-1.05A4,4,0,0,1,244.51,43.2Z"/><path class="cls-3" d="M256.83,49.93a2.26,2.26,0,0,1-1,2,4.57,4.57,0,0,1-2.64.68,7.74,7.74,0,0,1-1.63-.15,5.54,5.54,0,0,1-1.21-.42V50.67a8.39,8.39,0,0,0,1.31.5,5.63,5.63,0,0,0,1.57.23,2.91,2.91,0,0,0,1.64-.36,1.15,1.15,0,0,0,.51-1,1.12,1.12,0,0,0-.19-.61,2.35,2.35,0,0,0-.67-.54,11.27,11.27,0,0,0-1.38-.6,12.83,12.83,0,0,1-1.5-.68,2.69,2.69,0,0,1-1-.81,2,2,0,0,1-.34-1.22,2,2,0,0,1,.93-1.77,4.36,4.36,0,0,1,2.46-.63,6.88,6.88,0,0,1,1.55.17,7.91,7.91,0,0,1,1.35.44L256.14,45a8.89,8.89,0,0,0-1.2-.4,4.66,4.66,0,0,0-1.29-.17,2.74,2.74,0,0,0-1.39.29,1,1,0,0,0-.26,1.45,2.29,2.29,0,0,0,.73.51c.34.16.8.36,1.38.57a9.82,9.82,0,0,1,1.47.66,2.6,2.6,0,0,1,.93.82A2.18,2.18,0,0,1,256.83,49.93Z"/><path class="cls-3" d="M269.48,41.53a3.8,3.8,0,0,0-3.06,1.3,5.29,5.29,0,0,0-1.12,3.57,5.56,5.56,0,0,0,1,3.55,3.71,3.71,0,0,0,3.12,1.31,8,8,0,0,0,1.49-.13,13.59,13.59,0,0,0,1.4-.34v1.32a7.5,7.5,0,0,1-1.39.37,10.69,10.69,0,0,1-1.72.12,5.77,5.77,0,0,1-3.08-.76,4.72,4.72,0,0,1-1.85-2.16,8.2,8.2,0,0,1-.62-3.3,7.44,7.44,0,0,1,.67-3.22,5,5,0,0,1,2-2.18,6,6,0,0,1,3.16-.79,7.36,7.36,0,0,1,3.33.71l-.61,1.29a9.8,9.8,0,0,0-1.24-.46A5,5,0,0,0,269.48,41.53Z"/><path class="cls-3" d="M283,47.88a4.93,4.93,0,0,1-1.14,3.48,4,4,0,0,1-3.09,1.24,4.13,4.13,0,0,1-2.14-.55,3.77,3.77,0,0,1-1.47-1.61,5.41,5.41,0,0,1-.55-2.56,4.9,4.9,0,0,1,1.13-3.46,4,4,0,0,1,3.08-1.22,4.22,4.22,0,0,1,2.17.55,3.86,3.86,0,0,1,1.48,1.59A5.58,5.58,0,0,1,283,47.88Zm-6.85,0a4.46,4.46,0,0,0,.64,2.55,2.65,2.65,0,0,0,4,0,4.54,4.54,0,0,0,.64-2.55,4.33,4.33,0,0,0-.64-2.51,2.32,2.32,0,0,0-2-.92,2.26,2.26,0,0,0-2,.92A4.33,4.33,0,0,0,276.15,47.88Z"/><path class="cls-3" d="M285.47,51.52a1,1,0,0,1,1-1.13,1.14,1.14,0,0,1,.74.25,1.07,1.07,0,0,1,.32.88,1,1,0,0,1-1.06,1.15,1.06,1.06,0,0,1-.73-.27A1.14,1.14,0,0,1,285.47,51.52Z"/><path class="cls-3" d="M292.24,50.47l.12.18a20.21,20.21,0,0,1-.64,2c-.27.72-.54,1.38-.81,2h-1.1c.16-.64.32-1.34.48-2.11s.29-1.44.36-2Z"/><path class="cls-3" d="M297,52.43V40.36h1.52V51.08h5.27v1.35Z"/><path class="cls-3" d="M309,51.38a5.47,5.47,0,0,0,.69-.05,3,3,0,0,0,.58-.13v1.13a2.57,2.57,0,0,1-.68.19,5,5,0,0,1-.84.08,3.52,3.52,0,0,1-1.32-.24,2.11,2.11,0,0,1-1-.86,3.24,3.24,0,0,1-.37-1.71V44.52h-1.28v-.71l1.3-.59.59-1.93h.88v2.08h2.62v1.15h-2.62v5.24A1.67,1.67,0,0,0,308,51,1.38,1.38,0,0,0,309,51.38Z"/><path class="cls-3" d="M315.62,52.6a3.38,3.38,0,0,1-2.7-1.17,5.25,5.25,0,0,1-1-3.51,5.31,5.31,0,0,1,1-3.53,3.79,3.79,0,0,1,4.43-.8,3.72,3.72,0,0,1,1.09.95h.1c0-.15-.05-.37-.07-.65s0-.52,0-.69V39.58h1.48V52.43h-1.2l-.22-1.22h-.06a3.28,3.28,0,0,1-2.83,1.39Zm.24-1.24a2.36,2.36,0,0,0,2-.78,4,4,0,0,0,.58-2.38v-.27a4.88,4.88,0,0,0-.56-2.59,2.22,2.22,0,0,0-2.06-.9,2,2,0,0,0-1.8,1,4.78,4.78,0,0,0-.6,2.56,4.51,4.51,0,0,0,.6,2.52A2,2,0,0,0,315.86,51.36Z"/><path class="cls-3" d="M322.93,51.52a1,1,0,0,1,1-1.13,1.14,1.14,0,0,1,.74.25,1.07,1.07,0,0,1,.32.88A1,1,0,0,1,324,52.67a1.06,1.06,0,0,1-.73-.27A1.14,1.14,0,0,1,322.93,51.52Z"/></g></g></svg>