<?xml version="1.0" encoding="iso-8859-1"?>
<!-- Uploaded to: SVG Repo, www.svgrepo.com, Generator: SVG Repo Mixer Tools -->
<svg fill="#000000" height="800px" width="800px" version="1.1" id="Capa_1" xmlns="http://www.w3.org/2000/svg" xmlns:xlink="http://www.w3.org/1999/xlink" 
	 viewBox="0 0 489 489" xml:space="preserve">
<g>
	<path d="M372.7,52.781h-95.6c-55.5,0-102,39.1-113.6,91.2h-45.4c-65.3,0-118.1,52.9-118.1,118.1c0,52.2,33.9,96.4,80.8,112v56.3
		c0,5.2,6.3,7.8,10,4.1l54.3-54.3h80.1c57.2,0,104.9-40.7,115.8-94.7h3l45.3,45.3c3.1,3.1,7.2,4.8,11.4,4.7c2.1,0,4.2-0.4,6.2-1.2
		c6.1-2.5,10-8.4,10-15v-42.6c43.5-17.8,72.1-60.1,72.1-107.6C489.1,104.981,436.9,52.781,372.7,52.781z M177.8,285.181l-19.9,19.8
		l-19.8-19.9l-19.1-19.2l19.9-19.8l19.1,19.2l45.6-45.3l19.8,19.9L177.8,285.181z M402.5,258.781l-7.5,2.5v44.3l-41.9-41.9h-9.9
		c0-0.5,0.1-1,0.1-1.5c0-65.3-52.9-118.1-118.1-118.1h-39.1c11.1-39.9,47.6-69.2,90.9-69.2h95.6c52.1,0,94.4,42.4,94.4,94.4
		C467.1,209.881,441.2,245.881,402.5,258.781z"/>
</g>
</svg>